<?xml version="1.0" standalone="no"?>
<!DOCTYPE svg PUBLIC "-//W3C//DTD SVG 1.1//EN" "http://www.w3.org/Graphics/SVG/1.1/DTD/svg11.dtd">
<svg xmlns="http://www.w3.org/2000/svg">
<defs >
<font id="Sono" horiz-adv-x="1238" ><font-face
    font-family="Sono ExtraLight Monospace SemiBold"
    units-per-em="2000"
    panose-1="0 0 0 0 0 0 0 0 0 0"
    ascent="1824"
    descent="-576"
    alphabetic="0" />
<glyph unicode=" " />
<glyph unicode="!" d="M593 -21Q527 -21 481 24T435 136Q435 201 481 245T593 290Q659 290 704 246T750 136Q750 70 705 25T593 -21ZM592 417Q540 417 515 456T483 572Q473 722 467 869T460 1171Q460 1250 492 1291T592 1333Q660 1333 692 1292T724 1171Q724 1021
717 872T701 572Q694 496 669 457T592 417Z" />
<glyph unicode="&quot;" d="M695 775Q654 775 632 810T598 920Q595 949 591 991T585 1079T583 1167Q583 1257 609 1295T694 1333Q752 1333 779 1295T806 1168Q806 1125 804 1079T799 991T790 920Q779 846 758 811T695 775ZM807 775Q766 775 744 810T710 920Q707
949 703 991T697 1079T695 1167Q695 1257 721 1295T806 1333Q864 1333 891 1295T918 1168Q918 1125 916 1079T911 991T902 920Q891 846 870 811T807 775Z" />
<glyph unicode="#" d="M476 1333Q529 1333 557 1300T586 1203Q586 1186 584 1166L564 995H754L775 1184Q792 1333 920 1333Q973 1333 1001 1300T1029 1203Q1029 1195 1029 1186T1028 1165L1008 995H1074Q1129 995 1160 971T1191 902Q1191 842 1152 815T1062 787H984L954
528H1011Q1071 528 1099 504T1128 435Q1128 375 1092 348T999 320H930L910 149Q893 0 765 0Q712 0 684 34T655 130Q655 149 658 167L675 320H486L466 149Q449 0 321 0Q268 0 240 34T212 130Q212 149 214 167L232 320H171Q40 320 40 423Q40 475 78 501T175 528H256L285
787H227Q163 787 133 814T103 890Q103 942 141 968T238 995H310L331 1184Q348 1333 476 1333ZM510 528H700L729 787H540L510 528Z" />
<glyph unicode="$" d="M616 -44Q567 -44 539 -18T510 60V131Q415 140 334 166T203 234T154 326Q154 376 185 402T268 428Q291 428 317 421T373 398Q405 380 441 364T521 336T620 325Q704 325 753 348T802 424Q802 456 774 476T694 510T571 536Q456 557 369 593T233
689T184 844Q184 928 229 984T350 1072T510 1115V1198Q510 1248 538 1275T616 1302Q667 1302 694 1275T722 1198V1119Q806 1113 876 1091T990 1033T1034 943Q1034 897 1002 873T923 849Q895 849 871 855T821 873Q792 890 745 907T628 925Q599 925 569 922T512 908T470
881T454 837Q454 806 483 787T562 754T677 729Q792 709 883 678T1025 589T1077 436Q1077 345 1030 282T902 182T722 133V60Q722 9 695 -17T616 -44Z" />
<glyph unicode="%" d="M218 0Q188 0 170 14T151 54Q151 86 177 129L851 1225Q884 1282 908 1307T975 1333Q1005 1333 1022 1317T1039 1276Q1039 1242 1018 1208L342 108Q309 52 286 26T218 0ZM893 6Q830 6 775 31T686 112T652 261Q652 353 686 408T775 489T893
514Q957 514 1012 489T1101 409T1135 261Q1135 169 1101 113T1012 31T893 6ZM893 134Q931 134 957 161T984 261Q984 332 958 359T893 386Q856 386 829 359T801 261Q801 189 828 162T893 134ZM304 806Q241 806 186 831T97 912T63 1061Q63 1153 96 1208T185 1289T304
1314Q368 1314 423 1289T512 1209T546 1061Q546 969 512 913T423 831T304 806ZM304 934Q342 934 369 961T396 1061Q396 1132 369 1159T304 1186Q267 1186 240 1159T213 1061Q213 989 240 962T304 934Z" />
<glyph unicode="&amp;" d="M103 337Q103 424 142 489T247 605T391 695Q357 748 327 818T296 964Q296 1051 341 1115T465 1214T640 1250Q736 1250 810 1217T927 1122T969 977Q969 901 932 839T832 726T695 636L901 383Q927 422 941 460T965 544Q993 620 1060 620Q1096
620 1122 593T1149 515Q1149 440 1118 366T1033 227L1090 158Q1130 112 1130 68Q1130 24 1100 2T1030 -20Q996 -20 970 -4T917 40L872 93Q801 43 717 14T545 -15Q334 -15 219 80T103 337ZM356 345Q356 267 412 221T579 174Q629 174 673 192T751 241L512 539Q466
515 431 488T376 426T356 345ZM513 953Q513 923 524 892T550 832T578 783Q651 819 702 865T753 966Q753 1005 737 1029T694 1065T639 1077Q609 1077 580 1065T532 1026T513 953Z" />
<glyph unicode="&apos;" d="M553 775Q512 775 490 810T456 920Q453 949 449 991T443 1079T441 1167Q441 1257 467 1295T552 1333Q610 1333 637 1295T664 1168Q664 1125 662 1079T657 991T648 920Q637 846 616 811T553 775Z" />
<glyph unicode="(" d="M836 -434Q822 -441 808 -443T781 -446Q738 -446 702 -416T632 -334Q609 -299 569 -217T487 -15T416 251T387 560Q387 722 411 858T473 1105T553 1300T633 1442Q662 1487 698 1511T773 1536Q802 1536 831 1522Q883 1496 883 1435Q883 1381
844 1310Q814 1259 780 1185T716 1015T667 805T647 560Q647 429 666 315T715 106T779 -64T842 -191Q862 -227 874 -266T886 -340Q886 -373 874 -398T836 -434Z" />
<glyph unicode=")" d="M402 -434Q377 -423 365 -398T353 -340Q353 -306 365 -267T397 -191Q426 -139 459 -65T523 105T573 315T592 560Q592 691 573 805T523 1014T458 1184T395 1310Q356 1381 356 1435Q356 1496 408 1522Q438 1536 466 1536Q505 1536 541 1512T606
1442Q644 1384 686 1300T765 1106T827 859T851 560Q851 398 823 252T753 -14T671 -216T607 -334Q574 -386 538 -416T458 -446Q445 -446 431 -444T402 -434Z" />
<glyph unicode="*" d="M404 1020Q367 1020 342 1051T317 1116Q317 1166 381 1202L443 1238L381 1274Q316 1311 316 1359Q316 1394 342 1425T404 1456Q435 1456 473 1434L536 1398V1470Q536 1580 628 1580Q671 1580 695 1553T719 1470V1398L782 1434Q821 1456 852
1456Q889 1456 913 1424T938 1360Q938 1310 874 1274L812 1238L874 1202Q938 1166 938 1116Q938 1082 912 1051T851 1020Q821 1020 782 1043L719 1079V1006Q719 950 695 923T628 896Q585 896 561 923T536 1006V1079L473 1043Q434 1020 404 1020Z" />
<glyph unicode="+" d="M194 579Q194 683 353 683H800Q959 683 959 579Q959 475 800 475H353Q194 475 194 579ZM577 196Q473 196 473 355V802Q473 961 577 961Q681 961 681 802V355Q681 196 577 196Z" />
<glyph unicode="," d="M495 383Q552 383 601 359T680 285T710 156Q710 103 694 31T636 -122T513 -281Q476 -319 446 -333T396 -348Q374 -348 360 -335T345 -296Q345 -275 356 -254T405 -203Q444 -171 476 -129T522 -30Q516 -31 510 -31T495 -32Q406 -32 346 27T286
175Q286 232 314 279T389 355T495 383Z" />
<glyph unicode="-" d="M308 579Q308 629 342 656T454 683H791Q869 683 903 656T937 579Q937 529 903 502T791 475H454Q376 475 342 502T308 579Z" />
<glyph unicode="." d="M564 -41Q505 -41 456 -13T377 65T348 174Q348 234 377 283T455 360T564 389Q624 389 672 361T750 283T779 174Q779 115 750 66T673 -12T564 -41Z" />
<glyph unicode="/" d="M793 1524Q837 1524 865 1494T894 1411Q894 1385 885 1352L493 -135Q475 -203 444 -236T352 -270Q309 -270 284 -241T258 -161Q258 -129 266 -98L658 1388Q677 1457 705 1490T793 1524Z" />
<glyph unicode="0" d="M626 503Q580 503 547 532T513 615Q513 669 546 698T626 727Q672 727 705 698T738 615Q738 562 705 533T626 503ZM626 -21Q534 -21 447 11T289 117T177 313T135 616Q135 795 176 917T288 1112T446 1218T626 1251Q717 1251 804 1219T961 1113T1072
917T1114 616Q1114 436 1073 314T961 118T804 12T626 -21ZM626 171Q682 171 731 214T810 354T840 616Q840 779 810 876T731 1015T626 1058Q569 1058 520 1016T440 876T410 616Q410 451 440 354T519 214T626 171Z" />
<glyph unicode="1" d="M359 0Q282 0 245 25T207 97Q207 192 359 192H506V980Q469 951 417 937T311 922Q284 922 258 930T213 958T194 1017Q194 1054 212 1075T258 1106T313 1116Q385 1118 436 1142T521 1199Q545 1219 574 1232T648 1246Q716 1246 742 1205T769
1072V192H914Q1067 192 1067 97Q1067 51 1030 26T914 0H359Z" />
<glyph unicode="2" d="M1032 886Q1032 800 987 711T872 538T727 383T588 263T495 193H915Q993 193 1030 168T1068 96Q1068 50 1031 25T915 0H306Q228 0 194 32T160 112Q160 161 186 190T266 259Q318 300 384 357T517 479T641 615T732 752T767 878Q767 965 723
1011T601 1058Q539 1058 487 1028T396 960Q366 934 336 915T272 895Q233 895 197 925T160 996Q160 1061 235 1120Q296 1175 391 1212T607 1250Q801 1250 916 1161T1032 886Z" />
<glyph unicode="3" d="M198 199Q198 243 230 275T304 307Q337 307 369 289T428 243Q459 211 504 191T609 170Q670 170 716 192T789 254T816 352Q816 409 782 448T694 508T582 532Q538 537 505 559T472 629Q472 681 505 700T582 725Q640 729 687 749T762 807T790
899Q790 951 767 986T704 1040T610 1059Q568 1059 518 1040T429 983Q395 953 371 937T310 921Q267 921 238 952T209 1026Q209 1089 276 1137Q333 1185 419 1218T610 1251Q725 1251 825 1218T989 1113T1053 929Q1053 851 1019 790T928 689T804 633Q880 615 942 579T1042
484T1079 341Q1079 225 1015 144T844 20T612 -22Q502 -22 414 10T262 91Q228 116 213 144T198 199Z" />
<glyph unicode="4" d="M809 -19Q746 -19 711 15T675 131V318H268Q191 318 150 350T109 443Q109 471 118 509T137 582L333 1156Q348 1205 382 1228T457 1251Q498 1251 531 1224T565 1142Q565 1132 564 1120T558 1095L365 511H676V996Q676 1047 695 1076T743 1117T801
1129Q831 1129 859 1117T907 1076T926 996V511H1005Q1062 511 1094 486T1126 414Q1126 368 1094 343T1005 318H926V131Q926 49 892 15T809 -19Z" />
<glyph unicode="5" d="M666 828Q780 828 875 786T1027 652T1085 414Q1085 305 1043 223T927 87T760 6T563 -21Q466 -21 381 1T236 64Q193 90 169 124T145 195Q145 239 172 269T252 300Q292 300 317 286T364 251Q398 218 446 195T565 171Q638 171 695 198T784 278T816
409Q816 518 753 579T589 640Q518 640 473 617T385 547Q363 523 339 510T283 497Q223 497 194 526T164 618Q164 629 170 678T185 794T205 929T222 1050T233 1120Q244 1181 282 1209T393 1238H899Q981 1238 1012 1214T1044 1142Q1044 1096 1013 1071T899 1046H458L419
736Q461 778 521 803T666 828Z" />
<glyph unicode="6" d="M711 833Q884 833 990 730T1096 419Q1096 285 1037 186T870 33T614 -21Q464 -21 354 44T184 247T124 601Q124 766 172 888T302 1090T486 1210T697 1250Q785 1250 861 1223T984 1154T1032 1061Q1032 1018 1009 992T939 965Q900 965 874 979T824
1011T770 1043T692 1057Q621 1057 559 1019T454 904T401 710Q400 701 400 693T398 675Q453 748 536 790T711 833ZM407 387Q431 268 483 220T610 171Q710 171 770 231T831 419Q831 505 802 553T725 622T626 642Q575 642 527 617T446 536T407 387Z" />
<glyph unicode="7" d="M213 1142Q213 1189 249 1213T359 1238H899Q1058 1238 1058 1116Q1058 1070 1044 1036T1001 955Q931 850 864 721T753 444T709 137Q709 -16 575 -16Q509 -16 474 27T439 151Q439 288 473 421T563 673T680 888T796 1046H359Q286 1046 250
1070T213 1142Z" />
<glyph unicode="8" d="M618 -21Q473 -21 364 23T193 149T131 348Q131 472 195 549T354 665Q280 705 233 770T185 926Q185 1030 243 1102T399 1212T618 1250Q737 1250 834 1213T990 1103T1049 926Q1049 836 1002 771T879 664Q973 626 1037 549T1102 348Q1102 232
1041 150T871 23T618 -21ZM388 363Q388 264 455 217T618 170Q713 170 779 217T845 363Q845 429 813 472T728 537T618 558Q559 558 507 537T421 473T388 363ZM428 906Q428 838 478 794T618 749Q704 749 755 793T806 906Q806 978 752 1018T618 1059Q537 1059 483
1019T428 906Z" />
<glyph unicode="9" d="M595 1251Q740 1251 850 1198T1021 1024T1083 701Q1083 474 1001 320T761 86T376 6Q297 6 255 35T212 111Q212 158 252 185T371 212Q498 212 585 249T722 359T788 533Q738 482 667 447T508 412Q396 412 310 458T176 596T127 823Q127 957
184 1053T346 1200T595 1251ZM390 822Q390 742 416 691T487 617T586 593Q647 593 693 620T770 697T807 815Q799 912 770 964T697 1037T595 1057Q496 1057 443 1000T390 822Z" />
<glyph unicode=":" d="M625 -28Q578 -28 539 -5T476 57T453 144Q453 192 476 231T538 293T625 316Q673 316 712 294T774 232T797 144Q797 96 774 57T712 -5T625 -28ZM625 637Q578 637 539 660T476 723T453 810Q453 858 476 897T538 959T625 982Q673 982 712 959T774
897T797 810Q797 762 774 723T712 661T625 637Z" />
<glyph unicode=";" d="M546 639Q499 639 460 662T397 724T374 811Q374 859 397 898T459 960T546 983Q594 983 633 961T695 899T719 811Q719 763 696 724T633 662T546 639ZM546 296Q592 296 631 277T694 218T718 115Q718 72 705 14T658 -108T560 -235Q530 -265
507 -276T467 -288Q449 -288 438 -278T426 -247Q426 -230 435 -213T474 -172Q505 -147 531 -113T568 -34Q563 -35 558 -35T546 -36Q475 -36 427 11T379 130Q379 176 401 213T461 273T546 296Z" />
<glyph unicode="&lt;" d="M223 489V510Q223 577 249 615T315 672L872 958Q891 967 908 967Q949 967 980 934T1012 850Q1012 808 994 782T948 739T892 711L439 492V507L892 287Q920 276 947 260T993 218T1012 150Q1012 100 981 67T909 34Q890 34 872 43L315 326Q275
346 249 384T223 489Z" />
<glyph unicode="=" d="M228 418Q228 514 386 514H834Q993 514 993 418Q993 322 834 322H386Q228 322 228 418ZM228 756Q228 852 386 852H834Q993 852 993 756Q993 660 834 660H386Q228 660 228 756Z" />
<glyph unicode="&gt;" d="M1015 489Q1015 423 989 385T923 326L366 43Q348 34 329 34Q288 34 257 67T226 150Q226 192 244 218T290 260T346 287L799 507V492L346 711Q318 722 291 738T245 781T226 850Q226 900 257 933T330 967Q347 967 366 958L923 672Q963 653
989 615T1015 510V489Z" />
<glyph unicode="?" d="M535 386Q479 386 450 417T421 489Q421 569 452 627T531 728T631 806Q690 848 737 893T784 997Q784 1055 754 1086T675 1130T575 1143Q491 1143 438 1114T348 1047Q324 1028 298 1015T234 1001Q195 1001 171 1027T146 1096Q146 1119 158
1147T200 1198Q241 1238 298 1271T426 1324T580 1345Q706 1345 809 1310T973 1203T1035 1016Q1035 937 1003 881T921 782T816 700Q751 652 704 604T651 491Q646 450 619 418T535 386ZM545 -21Q480 -21 434 24T388 135Q388 198 434 243T545 288Q610 288 655 243T701
135Q701 70 656 25T545 -21Z" />
<glyph unicode="@" d="M555 -74Q488 -74 413 -60T268 -7T142 99T51 273T17 532Q17 758 102 926T343 1188T713 1282Q814 1282 906 1251T1070 1154T1183 981T1225 722Q1225 592 1187 476T1075 288T889 216Q796 216 759 259T721 373Q711 315 668 275T551 235Q500
235 450 265T368 363T336 539Q336 663 377 760T497 913T683 970Q716 970 742 965T790 950Q826 933 844 911T862 852Q862 826 859 775T852 679Q848 642 844 598T838 516T835 458Q835 410 850 384T900 358Q955 358 987 411T1032 544T1045 703Q1045 834 1008 924T892
1059T694 1105Q540 1105 431 1033T264 834T206 538Q206 389 249 293T372 148T562 94Q623 90 650 70T677 6Q677 -40 640 -57T555 -74ZM589 404Q628 404 652 438T681 522L704 788Q699 792 686 796T648 800Q609 800 575 773T521 694T500 569Q500 503 514 467T550 418T589
404Z" />
<glyph unicode="A" d="M204 -19Q149 -19 115 12T81 100Q81 113 83 127T89 157L385 1084Q405 1153 456 1197T572 1241H664Q730 1241 780 1197T851 1084L1147 157Q1152 141 1154 127T1156 100Q1156 43 1122 12T1032 -19Q963 -19 930 16T880 122L824 296H413L357
122Q340 51 307 16T204 -19ZM461 495H776L635 978Q630 997 626 1014T618 1046Q615 1032 611 1015T602 978L461 495Z" />
<glyph unicode="B" d="M845 653Q861 653 907 642T1004 598T1092 506T1129 349Q1129 232 1075 155T921 39T685 0H317Q158 0 158 159V1080Q158 1238 317 1238H630Q748 1238 852 1213T1020 1123T1084 935Q1084 845 1054 789T981 704T899 664T845 653ZM433 1040V725H611Q666
725 712 741T786 794T814 888Q814 953 784 985T703 1028T593 1040H433ZM602 198Q718 198 783 239T849 375Q849 473 782 509T621 546H433V198H602Z" />
<glyph unicode="C" d="M695 -20Q593 -20 490 12T302 117T165 312T113 614Q113 795 164 917T301 1112T490 1218T695 1250Q787 1250 867 1224T1009 1152T1105 1049T1139 931Q1139 878 1105 846T1022 814Q964 814 941 839T902 900Q891 934 867 968T802 1027T695 1051Q619
1051 550 1007T437 866T393 614Q393 459 436 363T549 223T695 179Q761 179 802 202T867 261T902 329Q917 364 940 390T1022 416Q1070 416 1104 384T1139 299Q1139 238 1105 181T1009 78T867 7T695 -20Z" />
<glyph unicode="D" d="M533 1238Q595 1238 674 1226T834 1179T986 1076T1098 896T1141 619Q1141 454 1099 343T986 163T835 59T674 12T533 0H287Q129 0 129 159V1080Q129 1238 287 1238H533ZM531 198Q601 198 661 221T767 295T838 425T864 619Q864 733 839 813T768
943T662 1016T531 1040H403V198H531Z" />
<glyph unicode="E" d="M1072 1139Q1072 1040 920 1040H469V719H832Q910 719 941 694T972 620Q972 572 941 547T832 521H469V198H920Q1072 198 1072 99Q1072 0 920 0H353Q194 0 194 159V1080Q194 1238 353 1238H920Q1072 1238 1072 1139Z" />
<glyph unicode="F" d="M1096 1139Q1096 1091 1056 1066T937 1040H516V626H881Q1015 626 1015 526Q1015 427 881 427H516V143Q516 -16 379 -16Q241 -16 241 143V1080Q241 1238 400 1238H937Q1015 1238 1055 1213T1096 1139Z" />
<glyph unicode="G" d="M637 -21Q526 -21 425 14T244 125T118 322T71 615Q71 787 120 908T254 1104T442 1215T657 1250Q769 1250 857 1220T1012 1130Q1046 1101 1062 1070T1078 1008Q1078 961 1042 930T961 898Q928 898 898 914T845 954Q815 988 770 1018T659 1048Q581
1048 510 1005T393 867T347 615Q347 452 391 357T504 222T653 181Q724 181 774 213T851 308T881 459H730Q672 459 638 481T604 554Q604 604 636 626T727 648H1006Q1083 648 1117 611T1152 503Q1152 330 1084 214T900 38T637 -21Z" />
<glyph unicode="H" d="M837 1089Q837 1248 975 1248Q1112 1248 1112 1089V143Q1112 -16 975 -16Q837 -16 837 143V532H398V143Q398 -16 261 -16Q123 -16 123 143V1089Q123 1166 158 1207T261 1248Q398 1248 398 1089V729H837V1089Z" />
<glyph unicode="I" d="M308 0Q236 0 200 25T163 99Q163 147 199 172T308 198H485V1040H308Q236 1040 200 1065T163 1139Q163 1187 199 1212T308 1238H921Q994 1238 1030 1213T1066 1139Q1066 1091 1030 1066T921 1040H747V198H921Q994 198 1030 173T1066 99Q1066
51 1030 26T921 0H308Z" />
<glyph unicode="J" d="M540 -21Q410 -21 303 23T132 159T68 399Q68 460 103 493T194 526Q263 526 295 489T345 379Q352 310 377 266T444 200T540 178Q609 178 655 212T724 324T747 526V1080Q747 1238 884 1238Q1021 1238 1021 1080V509Q1021 312 960 196T790 30T540 -21Z" />
<glyph unicode="K" d="M305 -19Q168 -19 168 138V1090Q168 1168 203 1208T305 1248Q443 1248 443 1090V717L799 1139Q839 1191 877 1219T974 1248Q1032 1248 1059 1221T1087 1149Q1087 1122 1078 1101T1050 1056L751 721Q716 679 692 654T657 620Q668 612 692
585T757 509L1049 179Q1070 153 1078 131T1086 81Q1086 36 1053 9T963 -19Q905 -19 871 5T798 82L443 515V138Q443 -19 305 -19Z" />
<glyph unicode="L" d="M550 198H931Q1009 198 1049 173T1090 99Q1090 51 1050 26T931 0H434Q275 0 275 159V1089Q275 1248 413 1248Q550 1248 550 1089V198Z" />
<glyph unicode="M" d="M196 -10Q135 -10 99 25T62 127Q62 147 66 204T79 344T96 520T115 708T134 884T149 1025T158 1105Q164 1155 186 1189T245 1240T332 1257H340Q414 1257 458 1220T515 1110L621 549L728 1110Q741 1184 785 1220T903 1257H911Q960 1257 997
1240T1057 1189T1085 1105Q1088 1084 1094 1025T1109 882T1127 703T1146 513T1163 337T1175 200T1180 127Q1180 61 1147 26T1053 -10Q920 -10 913 145L876 821L756 271Q742 198 708 164T621 130Q569 130 536 164T486 271L366 824L327 145Q324 69 294 30T196 -10Z"
/>
<glyph unicode="N" d="M256 -7Q130 -7 130 151V1076Q130 1156 180 1198T307 1241H314Q384 1241 438 1206T520 1104L851 407V1084Q851 1241 979 1241Q1038 1241 1072 1202T1106 1084V153Q1106 76 1059 35T936 -7H930Q860 -7 810 29T730 130L382 856V151Q382 -7 256 -7Z" />
<glyph unicode="O" d="M620 -21Q519 -21 421 13T242 121T113 318T65 615Q65 790 113 911T241 1107T420 1216T620 1250Q720 1250 818 1216T996 1108T1124 912T1172 615Q1172 440 1124 318T996 122T818 13T620 -21ZM620 178Q697 178 759 226T856 372T892 615Q892
760 857 856T759 1002T620 1051Q541 1051 479 1002T381 857T345 615Q345 469 381 372T479 227T620 178Z" />
<glyph unicode="P" d="M470 1040V638H619Q656 638 695 645T766 672T819 734T840 843Q840 911 820 950T767 1009T695 1034T619 1040H470ZM661 439H470V159Q470 0 333 0Q195 0 195 159V1080Q195 1238 354 1238H661Q706 1238 765 1232T885 1204T999 1139T1083 1024T1115
843Q1115 735 1083 662T999 545T886 477T765 447T661 439Z" />
<glyph unicode="Q" d="M986 -297Q914 -297 835 -257T695 -154T618 -21Q518 -21 420 13T241 121T113 318T65 615Q65 790 113 911T241 1107T420 1216T619 1250Q719 1250 817 1216T995 1108T1123 912T1171 615Q1171 442 1124 322T999 129T828 21Q844 -10 873 -34T937
-74T1004 -98Q1047 -109 1072 -132T1097 -202Q1097 -247 1066 -272T986 -297ZM344 615Q344 469 380 372T478 227T619 178Q697 178 758 226T856 372T892 615Q892 760 856 856T759 1002T619 1051Q541 1051 479 1002T380 857T344 615Z" />
<glyph unicode="R" d="M429 1040V699H637Q731 699 781 743T831 873Q831 958 781 999T633 1040H429ZM154 143V1080Q154 1238 313 1238H681Q747 1238 821 1226T960 1176T1066 1070T1107 887Q1107 759 1050 681T910 566L1081 171Q1091 149 1096 129T1101 91Q1101
42 1069 13T975 -16Q901 -16 869 20T812 124L656 501H429V143Q429 -16 291 -16Q154 -16 154 143Z" />
<glyph unicode="S" d="M620 -21Q473 -21 362 17T182 117Q104 177 104 260Q104 299 131 334T216 369Q265 369 299 348T363 296Q407 248 469 213T625 178Q689 178 742 196T827 250T859 334Q859 408 788 447T575 519Q343 574 237 672T130 915Q130 1019 197 1094T378
1209T635 1250Q749 1250 851 1218T1021 1124Q1055 1099 1076 1066T1097 992Q1097 942 1067 914T988 885Q939 885 905 910T847 959Q815 998 759 1024T622 1051Q563 1051 515 1035T438 989T410 919Q410 856 478 815T687 737Q825 702 926 654T1083 534T1139 352Q1139
237 1072 154T888 25T620 -21Z" />
<glyph unicode="T" d="M978 1238Q1137 1238 1137 1139Q1137 1091 1104 1066T1005 1040H756V143Q756 -16 618 -16Q481 -16 481 143V1040H260Q183 1040 142 1065T101 1139Q101 1187 142 1212T260 1238H978Z" />
<glyph unicode="U" d="M620 -21Q480 -21 365 33T180 206T111 519V1080Q111 1238 249 1238Q386 1238 386 1080V534Q386 364 447 271T620 178Q732 178 792 271T852 534V1080Q852 1238 989 1238Q1127 1238 1127 1080V519Q1127 325 1059 206T876 33T620 -21Z" />
<glyph unicode="V" d="M638 -3H601Q520 -3 472 32T401 136L99 1072Q94 1086 93 1100T91 1125Q91 1185 129 1216T225 1248Q294 1248 323 1213T369 1105L619 231L870 1105Q888 1177 917 1212T1015 1248Q1073 1248 1110 1216T1147 1124Q1147 1113 1146 1100T1140
1072L837 136Q816 67 767 32T638 -3Z" />
<glyph unicode="W" d="M323 -19Q248 -19 206 19T155 134Q152 155 146 213T130 354T112 530T93 718T76 894T64 1033T59 1111Q59 1178 95 1213T193 1248Q260 1248 290 1209T325 1093L363 397L483 991Q497 1064 531 1098T618 1132Q671 1132 706 1098T754 991L873
400L910 1093Q914 1170 948 1209T1050 1248Q1111 1248 1144 1213T1178 1111Q1178 1094 1174 1038T1161 901T1144 725T1125 535T1106 357T1091 214T1082 134Q1073 58 1031 20T914 -19H907Q834 -19 786 18T725 128L618 692L512 128Q499 55 452 18T331 -19H323Z" />
<glyph unicode="X" d="M262 -19Q204 -19 171 11T138 85Q138 106 145 127T173 176L464 603L154 1065Q140 1087 135 1106T130 1145Q130 1195 167 1222T256 1250Q294 1250 318 1238T363 1199T412 1126L618 800L821 1126Q863 1195 896 1222T984 1249Q1035 1249 1070
1224T1105 1145Q1105 1102 1078 1065L771 613L1060 176Q1080 146 1087 124T1095 80Q1095 37 1060 9T967 -19Q910 -19 881 11T816 97L615 412L412 97Q377 41 348 11T262 -19Z" />
<glyph unicode="Y" d="M616 -19Q479 -19 479 139V489Q454 514 429 559L156 1041Q130 1084 130 1133Q130 1177 160 1214T254 1251Q305 1251 334 1222T394 1130L617 698L840 1132Q872 1194 903 1222T985 1251Q1047 1251 1074 1215T1102 1135Q1102 1112 1095 1087T1075
1041L803 559Q791 538 779 521T754 490V139Q754 -19 616 -19Z" />
<glyph unicode="Z" d="M456 198H884Q962 198 1002 173T1043 99Q1043 51 1003 26T884 0H332Q255 0 214 37T173 138Q173 182 187 210T234 287L738 1040H347Q270 1040 229 1065T188 1139Q188 1187 229 1212T347 1238H864Q941 1238 981 1201T1022 1096Q1022 1059 1009
1029T962 951L456 198Z" />
<glyph unicode="[" d="M550 -444Q392 -444 392 -286V1382Q392 1541 550 1541H900Q946 1541 980 1515T1015 1438Q1015 1388 981 1360T900 1332H638V-236H900Q946 -236 980 -264T1015 -342Q1015 -393 981 -418T900 -444H550Z" />
<glyph unicode="\" d="M356 1524Q415 1524 443 1491T491 1388L883 -98Q892 -132 892 -161Q892 -211 866 -240T796 -270Q737 -270 706 -237T656 -135L264 1352Q255 1385 255 1411Q255 1464 284 1494T356 1524Z" />
<glyph unicode="]" d="M338 -444Q292 -444 258 -419T223 -342Q223 -292 257 -264T338 -236H600V1332H338Q292 1332 258 1360T223 1438Q223 1488 257 1514T338 1541H687Q845 1541 845 1382V-286Q845 -444 687 -444H338Z" />
<glyph unicode="^" d="M620 1255H642Q709 1255 746 1229T804 1163L1046 688Q1055 668 1055 651Q1055 610 1022 579T938 548Q897 548 870 566T827 611T799 668L632 1019L469 668Q453 625 423 587T330 548Q280 548 248 579T215 650Q215 669 224 688L458 1163Q478
1203 516 1229T620 1255Z" />
<glyph unicode="_" d="M-6 -189Q-6 -85 153 -85H1085Q1244 -85 1244 -189Q1244 -293 1085 -293H153Q-6 -293 -6 -189Z" />
<glyph unicode="`" d="M733 1082Q705 1082 675 1093T607 1136L495 1242Q456 1277 456 1309Q456 1332 473 1347T522 1363H550Q608 1363 639 1347T702 1275L753 1202Q782 1153 782 1125Q782 1100 767 1091T733 1082Z" />
<glyph unicode="a" d="M928 -3Q857 -3 825 25T789 103L785 126Q771 97 733 63T632 5T485 -19Q377 -19 291 18T155 127T105 301Q105 404 162 472T315 575T524 609Q588 609 640 597T727 568T777 540V638Q777 670 759 695T709 739T638 766T555 776Q495 776 441 765T345
739Q325 732 307 729T271 726Q223 726 193 749T162 818Q162 861 192 884T262 924Q313 945 398 960T583 975Q670 975 749 955T892 897T991 801T1027 670V192H1075Q1125 192 1151 167T1177 96Q1177 52 1146 25T1036 -3H928ZM777 371Q763 387 730 404T652 434T560
446Q472 446 415 414T357 308Q357 256 380 224T446 177T542 163Q599 163 647 188T729 246T777 305V371Z" />
<glyph unicode="b" d="M307 -10Q169 -10 169 149V1365Q169 1524 307 1524Q373 1524 408 1483T444 1365V854Q488 910 556 941T710 973Q824 973 920 918T1074 752T1132 478Q1132 315 1074 204T920 36T710 -21Q621 -21 549 14T431 113L429 73Q400 -10 307 -10ZM444
355Q450 307 477 268T547 207T638 184Q697 184 746 218T824 318T854 478Q854 574 825 638T746 735T638 768Q588 768 546 742T476 674T444 582V355Z" />
<glyph unicode="c" d="M660 -19Q570 -19 479 8T312 95T190 249T144 478Q144 612 190 707T312 861T479 947T660 975Q752 975 828 949T959 881Q998 858 1015 828T1033 768Q1033 719 998 688T916 657Q880 657 855 669T811 704Q785 737 748 757T659 777Q615 777 573
759T497 704T443 611T423 478Q423 401 443 345T497 253T573 198T659 180Q710 180 747 200T811 252Q831 274 855 286T916 299Q963 299 998 269T1033 188Q1033 158 1015 129T959 76Q904 34 828 8T660 -19Z" />
<glyph unicode="d" d="M931 -10Q838 -10 809 73L807 113Q762 50 690 15T528 -21Q415 -21 319 35T164 203T106 478Q106 641 164 751T318 917T528 973Q613 973 681 942T794 854V1365Q794 1442 829 1483T931 1524Q1069 1524 1069 1365V149Q1069 -10 931 -10ZM794
355V582Q791 631 763 673T693 742T600 768Q541 768 492 736T414 639T384 478Q384 384 413 318T492 218T600 184Q648 184 690 206T761 268T794 355Z" />
<glyph unicode="e" d="M619 -21Q489 -21 376 36T194 204T124 478Q124 601 164 693T274 849T432 943T619 975Q756 975 859 922T1021 775T1079 555Q1079 486 1049 456T946 426H392Q400 346 434 291T520 207T636 178Q718 178 768 202T855 255Q883 274 912 287T974
300Q1018 300 1045 275T1073 204Q1073 165 1052 138T998 86Q939 42 844 11T619 -21ZM401 595H833Q820 687 767 738T622 790Q573 790 529 769T451 705T401 595Z" />
<glyph unicode="f" d="M244 754Q98 754 98 853Q98 952 244 952H365V1121Q365 1241 399 1323T491 1456T620 1528T762 1551Q862 1551 940 1514T1063 1410T1109 1256Q1109 1199 1080 1169T998 1139Q938 1139 917 1167T892 1226Q887 1288 855 1322T769 1357Q732 1357
703 1332T657 1252T640 1105V952H889Q962 952 998 927T1035 853Q1035 805 999 780T889 754H640V141Q640 -17 503 -17Q365 -17 365 141V754H244Z" />
<glyph unicode="g" d="M600 -496Q519 -496 442 -480T301 -431T201 -349T163 -233Q163 -172 199 -143T293 -113Q347 -113 376 -139T424 -192Q444 -245 491 -270T607 -295Q658 -295 701 -275T772 -208T799 -84V98Q754 42 685 11T533 -21Q420 -21 324 35T169 203T110
478Q110 641 168 751T323 917T533 973Q623 973 694 938T810 840L812 883Q840 968 936 968Q1074 968 1074 811V-15Q1074 -154 1034 -247T925 -394T773 -472T600 -496ZM605 184Q653 184 695 206T765 268T799 355V582Q795 631 768 673T697 742T605 768Q546 768 497
736T419 639T389 478Q389 384 418 318T497 218T605 184Z" />
<glyph unicode="h" d="M934 -10Q797 -10 797 149V517Q797 649 756 710T629 771Q590 771 556 754T495 706T453 635T438 549V149Q438 -10 300 -10Q234 -10 199 31T163 149V1365Q163 1442 198 1483T300 1524Q438 1524 438 1365V837Q486 896 557 935T717 974Q820 974
900 935T1026 804T1072 557V149Q1072 -10 934 -10Z" />
<glyph unicode="i" d="M311 198H505V754H372Q294 754 254 779T214 853Q214 901 254 926T372 952H618Q776 952 776 794V198H953Q1025 198 1061 173T1098 99Q1098 51 1062 26T953 0H311Q239 0 203 25T167 99Q167 147 203 172T311 198ZM440 1336Q440 1390 466 1433T535
1502T632 1528Q686 1528 729 1503T798 1434T824 1336Q824 1283 799 1239T730 1170T632 1144Q579 1144 536 1169T466 1239T440 1336Z" />
<glyph unicode="j" d="M810 1144Q757 1144 713 1169T644 1239T618 1336Q618 1390 643 1433T713 1502T810 1528Q864 1528 907 1503T976 1434T1002 1336Q1002 1283 976 1239T907 1170T810 1144ZM99 -198Q99 -143 138 -111T227 -78Q268 -78 305 -102T368 -176Q380
-237 421 -266T516 -295Q567 -295 603 -272T659 -198T679 -65V754H412Q335 754 295 779T255 853Q255 901 295 926T412 952H816Q954 952 954 798V-9Q954 -149 918 -243T819 -392T678 -472T516 -496Q440 -496 366 -476T232 -416T135 -322T99 -198Z" />
<glyph unicode="k" d="M302 -11Q164 -11 164 147V1375Q164 1533 302 1533Q439 1533 439 1375V604L781 893Q825 931 856 950T937 969Q986 969 1018 946T1050 878Q1050 854 1042 836T1013 798L773 593L1054 176Q1072 152 1077 131T1082 89Q1082 41 1049 15T966 -11Q902
-11 870 20T800 105L589 433L439 304V147Q439 -11 302 -11Z" />
<glyph unicode="l" d="M288 0Q216 0 180 25T143 99Q143 147 179 172T288 198H482V1326H332Q255 1326 215 1351T174 1424Q174 1472 214 1498T332 1524H581Q658 1524 699 1483T740 1365V198H949Q1022 198 1058 173T1094 99Q1094 51 1058 26T949 0H288Z" />
<glyph unicode="m" d="M627 -19Q577 -19 544 11T510 119V543Q510 630 500 674T472 734T430 749Q404 749 382 729T347 666T334 557V137Q334 -19 206 -19Q78 -19 78 137V811Q78 968 206 968Q259 968 292 936T331 843L332 838Q359 893 417 933T544 974Q622 974 665
937T727 821Q765 888 822 931T954 974Q1060 974 1110 903T1161 681V137Q1161 -19 1040 -19Q919 -19 919 137V543Q919 630 909 674T880 734T839 749Q813 749 791 727T756 660T743 547V119Q743 41 710 11T627 -19Z" />
<glyph unicode="n" d="M943 -10Q805 -10 805 149V517Q805 644 768 707T643 771Q602 771 567 753T504 704T462 632T447 546V149Q447 -10 309 -10Q172 -10 172 149V811Q172 970 309 970Q419 970 440 866L441 817Q487 885 563 929T738 974Q841 974 918 933T1037 801T1080
557V149Q1080 72 1045 31T943 -10Z" />
<glyph unicode="o" d="M621 -21Q529 -21 438 7T271 96T148 250T102 478Q102 611 148 705T270 858T438 946T621 975Q711 975 802 947T969 859T1091 705T1137 478Q1137 345 1091 251T970 96T803 8T621 -21ZM621 177Q667 177 709 194T785 248T839 341T859 478Q859
557 840 613T786 706T709 760T621 777Q575 777 532 760T454 707T400 614T380 478Q380 398 400 342T454 249T531 195T621 177Z" />
<glyph unicode="p" d="M174 808Q174 967 312 967Q359 967 392 946T436 880L437 840Q482 903 553 938T715 973Q829 973 925 918T1079 752T1137 478Q1137 315 1079 204T925 36T715 -21Q631 -21 563 10T449 97V-318Q449 -476 312 -476Q174 -476 174 -318V808ZM449
351Q456 304 483 266T553 206T642 184Q701 184 750 218T829 318T859 478Q859 574 829 638T750 735T642 768Q594 768 552 743T482 678T449 588V351Z" />
<glyph unicode="q" d="M926 -476Q789 -476 789 -318V97Q744 42 676 11T523 -21Q410 -21 314 35T159 203T101 478Q101 641 159 751T313 917T523 973Q613 973 684 938T801 840L802 880Q813 924 846 945T926 967Q1064 967 1064 808V-318Q1064 -476 926 -476ZM596
184Q643 184 685 206T755 266T789 351V588Q784 637 756 677T686 743T596 768Q537 768 488 736T409 639T379 478Q379 384 409 318T488 218T596 184Z" />
<glyph unicode="r" d="M614 192H737Q801 192 829 165T858 96Q858 55 829 28T737 0H294Q226 0 197 27T167 96Q167 138 194 165T276 192H371V760H278Q221 760 191 786T161 857Q161 903 201 927T319 952H430Q484 952 525 927T589 856L595 804Q659 881 752 928T945
975Q1016 975 1071 947T1127 846Q1127 780 1093 745T999 710Q964 710 941 715T894 729Q874 736 854 739T814 743Q760 743 715 712T642 630T614 513V192Z" />
<glyph unicode="s" d="M618 -21Q531 -21 448 -8T297 32T190 95T150 179Q150 229 182 255T264 281Q287 281 313 274T370 250Q401 233 437 217T517 189T616 178Q700 178 749 201T799 277Q799 309 771 329T690 363T567 389Q452 410 365 445T229 542T180 697Q180 774
218 827T321 912T463 960T621 975Q696 975 768 965T900 933T995 878T1030 796Q1030 750 999 726T919 702Q892 702 868 708T818 726Q788 743 741 760T624 777Q595 777 565 774T508 761T466 734T450 690Q450 659 479 640T558 607T673 581Q789 562 879 531T1022 442T1074
289Q1074 183 1011 114T844 12T618 -21Z" />
<glyph unicode="t" d="M245 754Q93 754 93 853Q93 952 245 952H359V1154Q359 1313 496 1313Q633 1313 633 1154V952H895Q1047 952 1047 853Q1047 754 895 754H633V362Q633 296 649 255T694 194T760 175Q818 175 850 216T891 316Q901 350 923 374T992 399Q1036
399 1063 374T1090 286Q1090 194 1039 125T906 19T728 -19Q632 -19 548 11T411 110T359 299V754H245Z" />
<glyph unicode="u" d="M305 962Q442 962 442 803V429Q442 302 479 242T603 181Q662 181 706 210T775 291T800 403V803Q800 962 938 962Q1075 962 1075 803V141Q1075 -17 938 -17Q837 -17 811 74L809 121Q758 58 682 18T508 -22Q406 -22 329 17T210 147T167 388V803Q167
962 305 962Z" />
<glyph unicode="v" d="M541 -6Q471 -6 428 27T363 126L145 783Q135 816 135 845Q135 900 171 931T265 962Q334 962 365 928T412 821L575 213L738 821Q754 893 788 927T892 962Q947 962 981 932T1016 847Q1016 816 1005 783L788 126Q766 60 723 27T609 -6H541Z" />
<glyph unicode="w" d="M337 -11Q263 -11 216 25T155 137Q153 152 146 205T130 332T111 488T93 643T79 767T72 829Q69 894 106 932T202 970Q270 970 302 928T338 807L371 252L474 688Q492 768 531 799T619 830Q669 830 707 799T764 688L868 262L901 807Q905 885
938 927T1038 970Q1096 970 1132 933T1166 829Q1166 818 1161 769T1147 648T1129 496T1110 342T1094 212T1084 137Q1074 62 1028 26T908 -11Q820 -11 774 23T712 135L620 543L526 135Q510 55 467 22T337 -11Z" />
<glyph unicode="x" d="M926 968Q976 968 1003 942T1031 871Q1031 842 1022 823T993 781L766 487L1021 165Q1040 142 1045 121T1050 80Q1050 32 1017 7T933 -19Q866 -19 831 7T756 89L603 300L434 70Q409 35 375 8T284 -19Q238 -19 207 9T176 78Q176 97 183 116T209
156L459 463L220 769Q202 791 196 812T190 859Q190 906 228 937T320 968Q382 968 414 939T484 853L624 658L764 853Q804 907 837 937T926 968Z" />
<glyph unicode="y" d="M330 -476Q182 -476 182 -379Q182 -330 217 -306T330 -273Q384 -267 421 -234T487 -144T545 -8L549 4Q427 9 388 130L167 780Q157 811 157 840Q157 897 193 932T286 968Q357 968 389 932T442 824L623 261L804 823Q823 890 855 929T960 968Q1016
968 1049 934T1083 842Q1083 828 1081 813T1074 780L817 0Q779 -116 738 -205T642 -354T513 -445T330 -476Z" />
<glyph unicode="z" d="M228 131Q228 177 247 207T309 279L723 754H402Q325 754 284 780T243 854Q243 902 284 927T402 952H864Q941 952 981 918T1022 824Q1022 775 1004 746T942 673L531 198H871Q948 198 989 174T1030 101Q1030 53 989 27T871 0H387Q309 0 269
40T228 131Z" />
<glyph unicode="{" d="M874 -155Q909 -155 930 -180T951 -252Q951 -298 918 -323T828 -348Q718 -348 634 -308T502 -191T454 -2V299Q454 364 443 409T406 478T337 505Q296 511 277 536T257 604Q257 645 276 669T337 700Q380 704 405 728T442 797T454 907V1207Q454
1320 501 1397T633 1514T828 1554Q885 1554 918 1529T951 1457Q951 1411 930 1386T874 1361Q783 1361 740 1317T696 1144V833Q696 754 672 708T609 638T521 608T427 600V606Q473 605 521 598T608 568T672 499T696 373V62Q696 -68 739 -111T874 -155Z" />
<glyph unicode="|" d="M461 1365Q461 1524 567 1524Q672 1524 672 1365V-184Q672 -343 567 -343Q461 -343 461 -184V1365Z" />
<glyph unicode="}" d="M363 -155Q454 -155 497 -112T541 62V373Q541 452 565 498T628 567T715 597T810 606V600Q763 601 716 608T629 638T565 707T541 833V1144Q541 1273 498 1317T363 1361Q328 1361 307 1386T286 1457Q286 1504 319 1529T409 1554Q520 1554 604
1514T735 1397T783 1207V907Q783 842 794 797T831 728T899 700Q942 694 960 670T979 604Q979 562 960 537T899 505Q857 502 832 478T795 409T783 299V-2Q783 -114 736 -191T604 -308T409 -348Q352 -348 319 -323T286 -252Q286 -205 307 -180T363 -155Z" />
<glyph unicode="~" d="M736 1060Q686 1060 658 1075T604 1111Q585 1127 566 1137T518 1147Q490 1147 467 1138T424 1117Q392 1096 371 1096Q352 1096 339 1113T326 1153Q326 1202 377 1248Q401 1269 435 1284T509 1300Q560 1300 588 1286T637 1251Q655 1234 674
1222T727 1210Q755 1210 775 1218T811 1240Q823 1250 836 1256T866 1263Q887 1263 904 1248T922 1203Q922 1169 899 1143Q876 1115 835 1088T736 1060Z" />
<glyph unicode="&#xa0;" />
<glyph unicode="&#xa1;" d="M623 976Q689 976 734 931T780 819Q780 755 735 711T623 666Q556 666 511 710T465 819Q465 886 510 931T623 976ZM622 539Q722 539 734 384Q742 234 748 84T754 -215Q754 -294 722 -336T622 -378Q554 -378 522 -336T490 -215Q490 -61
495 86T509 384Q521 539 622 539Z" />
<glyph unicode="&#xa2;" d="M663 -13Q613 -13 585 14T557 92V199Q557 251 585 277T663 304Q768 304 768 199V92Q768 -13 663 -13ZM663 1011Q613 1011 585 1038T557 1115V1229Q557 1281 585 1307T663 1334Q768 1334 768 1229V1115Q768 1065 741 1038T663 1011ZM675
157Q585 157 494 184T327 271T205 425T159 654Q159 788 205 883T327 1037T494 1123T675 1151Q767 1151 843 1125T974 1057Q1013 1034 1030 1004T1048 944Q1048 895 1013 864T931 833Q895 833 870 845T826 880Q800 913 763 933T674 953Q630 953 588 935T512 880T458
787T438 654Q438 577 458 521T512 429T588 374T674 356Q725 356 762 376T826 428Q846 450 870 462T931 475Q978 475 1013 445T1048 364Q1048 334 1030 305T974 252Q919 210 843 184T675 157Z" />
<glyph unicode="&#xa3;" d="M806 -25Q754 -25 712 -17T631 1Q599 10 567 15T500 21Q461 21 419 15T341 -1Q299 -11 271 -11Q217 -11 187 15T156 94Q156 140 185 173T237 227Q275 264 290 334T306 477Q306 530 291 585T255 697Q234 757 219 814T203 934Q203 1032
265 1104T431 1216T659 1256Q747 1256 819 1234T943 1173Q979 1150 1000 1119T1021 1048Q1021 1004 988 980T914 955Q888 955 863 968T813 997Q790 1017 752 1032T659 1047Q609 1047 562 1029T484 979T453 898Q453 859 464 813T494 714Q514 655 530 592T547 473Q547
393 521 328T456 216T380 144L363 163Q393 175 445 184T555 193Q590 193 620 187T679 172Q705 164 732 159T787 153Q813 153 837 155T882 161Q917 168 946 168Q988 168 1014 150T1040 86Q1040 51 1008 27T922 -11T806 -25ZM235 523Q76 523 76 618Q76 714 235 714H676Q835
714 835 618Q835 523 676 523H235Z" />
<glyph unicode="&#xa4;" d="M624 322Q507 322 410 362T254 488T196 705Q196 838 254 922T409 1046T624 1086Q741 1086 838 1046T992 922T1050 705Q1050 573 993 488T838 363T624 322ZM241 237Q211 237 185 259T159 315Q159 337 172 361T207 411L301 508L431 389L331
285Q286 237 241 237ZM624 520Q680 520 723 540T792 601T818 705Q818 768 793 808T724 868T624 888Q568 888 524 869T455 809T429 705Q429 642 454 601T524 540T624 520ZM1012 237Q967 237 921 285L820 391L950 510L1046 411Q1094 361 1094 315Q1094 282 1068 260T1012
237ZM303 899L207 997Q159 1047 159 1094Q159 1127 185 1149T241 1172Q285 1172 331 1123L433 1018L303 899ZM950 898L821 1016L921 1123Q944 1149 967 1160T1012 1172Q1042 1172 1068 1150T1094 1094Q1094 1048 1046 997L950 898Z" />
<glyph unicode="&#xa5;" d="M239 533Q239 619 398 619H837Q995 619 995 533Q995 447 837 447H398Q239 447 239 533ZM239 273Q239 359 398 359H837Q995 359 995 273Q995 187 837 187H398Q239 187 239 273ZM616 -19Q479 -19 479 139V489Q454 514 429 559L156 1041Q130
1084 130 1133Q130 1177 160 1214T254 1251Q305 1251 334 1222T394 1130L617 698L840 1132Q872 1194 903 1222T985 1251Q1047 1251 1074 1215T1102 1135Q1102 1112 1095 1087T1075 1041L803 559Q791 538 779 521T754 490V139Q754 -19 616 -19Z" />
<glyph unicode="&#xa6;" d="M567 310Q673 310 673 152V-184Q673 -343 567 -343Q460 -343 460 -184V152Q460 310 567 310ZM567 863Q460 863 460 1021V1365Q460 1524 567 1524Q673 1524 673 1365V1021Q673 863 567 863Z" />
<glyph unicode="&#xa7;" d="M617 -71Q508 -71 422 -56T275 -17Q225 0 194 26T162 99Q162 149 193 176T276 203Q297 203 322 196T377 177Q429 154 488 141T616 127Q700 127 749 150T799 227Q799 260 770 281T689 317T566 345Q453 366 366 400T229 493T180 647Q180
719 217 769T312 849Q254 884 217 935T180 1064Q180 1143 220 1196T326 1282T474 1327T637 1341Q713 1341 775 1333T885 1312Q968 1294 999 1263T1031 1191Q1031 1145 999 1119T919 1092Q893 1092 868 1097T817 1111Q779 1125 731 1134T626 1143Q598 1143 567 1140T509
1127T466 1102T449 1058Q449 1026 472 1006T539 973T648 947Q737 933 814 912T950 859T1040 776T1073 655Q1073 579 1037 526T942 441Q1000 408 1036 360T1073 238Q1073 131 1010 63T843 -38T617 -71ZM449 654Q449 623 471 600T536 561T638 532Q712 535 755 557T799
631Q799 662 774 684T706 724T605 754Q570 751 534 740T474 708T449 654Z" />
<glyph unicode="&#xa8;" d="M410 1084Q348 1084 305 1127T261 1233Q261 1298 304 1341T410 1385Q473 1385 516 1342T560 1233Q560 1171 517 1128T410 1084ZM826 1084Q764 1084 721 1127T677 1233Q677 1298 720 1341T826 1385Q889 1385 933 1342T977 1233Q977 1171
933 1128T826 1084Z" />
<glyph unicode="&#xa9;" d="M617 94Q520 94 420 120T235 211T99 386T47 665Q47 833 98 943T234 1116T419 1207T617 1234Q713 1234 813 1207T997 1117T1132 943T1184 665Q1184 497 1133 386T997 211T813 121T617 94ZM634 389Q563 389 498 416T390 504T348 665Q348
765 390 826T497 914T634 941Q684 941 724 928T794 894Q838 866 838 828Q838 799 818 782T772 765Q737 765 710 795Q696 810 676 819T632 829Q575 829 541 786T506 665Q506 587 540 545T632 502Q675 502 706 532Q718 545 733 552T770 559Q796 559 815 542T835 497Q835
459 789 430Q758 410 718 400T634 389ZM617 238Q690 238 761 257T892 323T986 453T1022 665Q1022 793 987 875T892 1004T762 1070T617 1089Q543 1089 471 1070T339 1005T244 876T208 665Q208 536 243 453T338 323T470 257T617 238Z" />
<glyph unicode="&#xaa;" d="M794 991Q718 991 718 1047V1066Q710 1042 674 1013T569 984Q494 984 445 1027T396 1141Q396 1215 455 1253T594 1292Q641 1292 674 1282T717 1264V1284Q717 1319 689 1336T619 1354Q588 1354 562 1350T514 1338Q504 1335 495 1334T479
1333Q454 1333 435 1344T415 1383Q415 1405 431 1417T470 1438Q495 1448 539 1455T634 1463Q692 1463 742 1446T823 1393T855 1301V1100H876Q928 1100 928 1047Q928 1022 911 1007T851 991H794ZM717 1186Q708 1193 680 1200T621 1208Q580 1208 558 1190T535 1145Q535
1118 554 1101T615 1084Q654 1084 681 1107T717 1143V1186Z" />
<glyph unicode="&#xab;" d="M854 143Q802 143 720 217L545 389Q483 444 463 481T443 561Q443 607 473 651T546 734L720 905Q802 979 854 979Q879 979 895 963T911 924Q911 897 887 864T823 791L506 477V650L823 331Q863 292 887 259T911 198Q911 174 894 159T854
143ZM1025 143Q973 143 891 217L716 389Q654 444 634 481T614 561Q614 607 644 651T717 734L891 905Q973 979 1025 979Q1050 979 1066 963T1082 924Q1082 897 1058 864T994 791L677 477V650L994 331Q1034 292 1058 259T1082 198Q1082 174 1065 159T1025 143Z" />
<glyph unicode="&#xac;" d="M244 579Q244 629 278 656T390 683H819Q899 683 932 654T965 572Q965 525 931 500T819 475H390Q313 475 279 502T244 579ZM860 669Q910 669 937 637T965 572V354Q965 276 938 243T860 209Q810 209 777 242T743 354V526Q743 599 776
634T860 669Z" />
<glyph unicode="&#xad;" d="M308 579Q308 629 342 656T454 683H791Q869 683 903 656T937 579Q937 529 903 502T791 475H454Q376 475 342 502T308 579Z" />
<glyph unicode="&#xae;" d="M605 307Q501 307 405 337T232 430T112 594T67 836Q67 977 111 1077T232 1240T404 1333T605 1363Q709 1363 804 1333T976 1240T1097 1077T1141 836Q1141 695 1097 595T977 431T805 337T605 307ZM215 836Q215 728 247 653T334 530T459
461T605 439Q679 439 748 461T872 530T959 652T991 836Q991 943 959 1018T872 1141T748 1210T605 1232Q531 1232 462 1210T336 1141T248 1019T215 836ZM430 652V1023Q430 1098 505 1098H640Q670 1098 710 1089T780 1047T811 946Q811 887 787 855T730 806L788 663Q796
642 796 626Q796 578 742 578Q711 578 698 594T672 644L620 784H551V652Q551 578 490 578Q430 578 430 652ZM551 872H621Q655 872 673 888T691 941Q691 978 673 993T615 1008H551V872Z" />
<glyph unicode="&#xaf;" d="M250 1216Q250 1252 283 1273T389 1295H869Q942 1295 975 1274T1008 1216Q1008 1179 975 1158T869 1136H389Q316 1136 283 1157T250 1216Z" />
<glyph unicode="&#xb0;" d="M526 990Q461 990 408 1022T322 1108T289 1227Q289 1291 321 1344T407 1430T526 1462Q590 1462 643 1430T729 1345T761 1227Q761 1162 729 1108T644 1022T526 990ZM526 1137Q563 1137 588 1162T614 1227Q614 1264 589 1289T526 1315Q488
1315 462 1290T436 1227Q436 1188 462 1163T526 1137Z" />
<glyph unicode="&#xb1;" d="M194 780Q194 884 353 884H800Q959 884 959 780Q959 676 800 676H353Q194 676 194 780ZM577 397Q473 397 473 556V1003Q473 1162 577 1162Q681 1162 681 1003V556Q681 397 577 397ZM194 222Q194 326 353 326H800Q959 326 959 222Q959
118 800 118H353Q194 118 194 222Z" />
<glyph unicode="&#xb2;" d="M893 1060Q893 1007 853 955T756 858T646 781T571 734H801Q891 734 891 677Q891 620 801 620H458Q414 620 389 637T364 681Q364 712 380 731T428 769Q495 811 566 860T687 960T737 1056Q737 1091 711 1111T630 1132Q591 1132 560 1119T506
1087Q486 1071 470 1061T433 1051Q409 1051 388 1068T367 1110Q367 1128 378 1148T410 1183Q444 1209 502 1227T634 1245Q757 1245 825 1201T893 1060Z" />
<glyph unicode="&#xb3;" d="M383 723Q383 748 402 767T446 787Q469 787 483 780T511 761Q529 746 556 735T629 723Q666 723 696 732T745 759T763 799Q763 832 716 853T617 881Q602 884 584 895T565 934Q565 966 584 976T617 990Q669 997 708 1015T747 1064Q747
1085 731 1100T689 1123T630 1132Q591 1132 564 1121T520 1095Q506 1083 491 1075T452 1066Q427 1066 412 1085T397 1130Q397 1146 405 1163T433 1194Q468 1218 518 1231T630 1245Q698 1245 757 1228T852 1175T888 1082Q888 1028 852 990T762 938Q824 925 863 888T903
792Q903 704 824 657T631 609Q567 609 513 623T421 661Q401 673 392 689T383 723Z" />
<glyph unicode="&#xb4;" d="M506 1082Q488 1082 472 1091T456 1125Q456 1153 485 1202L536 1275Q568 1331 599 1347T688 1363H717Q748 1363 765 1348T782 1309Q782 1276 743 1242L631 1136Q595 1104 564 1093T506 1082Z" />
<glyph unicode="&#xb5;" d="M305 -477Q167 -477 167 -318V475L440 277V-318Q440 -477 305 -477ZM305 962Q442 962 442 803V429Q442 302 479 242T603 181Q662 181 706 210T775 291T800 403V803Q800 962 938 962Q1075 962 1075 803V141Q1075 -17 938 -17Q837 -17
811 74L809 121Q758 58 682 18T508 -22Q406 -22 329 17T210 147T167 388V803Q167 962 305 962Z" />
<glyph unicode="&#xb6;" d="M464 550Q411 550 350 570T233 637T142 760T106 949Q106 1054 142 1127T237 1245T365 1312T502 1333H893Q971 1333 1014 1290T1057 1155V-70Q1057 -229 959 -229Q861 -229 861 -70V1141H706V-70Q706 -229 608 -229Q510 -229 510 -70V550H464Z" />
<glyph unicode="&#xb7;" d="M613 420Q554 420 505 448T426 526T397 635Q397 695 426 744T504 821T613 850Q673 850 721 822T799 744T828 635Q828 576 799 527T722 449T613 420Z" />
<glyph unicode="&#xb8;" d="M500 -454Q465 -454 437 -451T386 -439Q324 -415 324 -371Q324 -343 342 -329T384 -314Q405 -314 435 -321Q452 -325 473 -326T518 -328Q578 -328 617 -311T656 -259Q656 -237 641 -227T600 -216Q576 -216 556 -220T518 -230Q501 -235
484 -238T450 -242Q416 -242 400 -225T384 -181Q384 -172 387 -161T393 -139L443 0Q452 26 476 47T535 69Q561 69 579 58T597 25Q597 19 595 13T591 0L542 -149Q569 -129 603 -120T674 -111Q716 -111 756 -125T823 -170T850 -250Q850 -318 801 -363T672 -431T500
-454Z" />
<glyph unicode="&#xb9;" d="M458 620Q368 620 368 677Q368 734 458 734H549V1092Q526 1081 494 1074T430 1066Q407 1066 384 1077T361 1122Q361 1156 384 1168T432 1182Q468 1183 500 1192T552 1217Q567 1227 589 1235T633 1244Q675 1244 689 1216T703 1139V734H793Q883
734 883 677Q883 620 793 620H458Z" />
<glyph unicode="&#xba;" d="M526 990Q461 990 408 1022T322 1108T289 1227Q289 1291 321 1344T407 1430T526 1462Q590 1462 643 1430T729 1345T761 1227Q761 1162 729 1108T644 1022T526 990ZM526 1137Q563 1137 588 1162T614 1227Q614 1264 589 1289T526 1315Q488
1315 462 1290T436 1227Q436 1188 462 1163T526 1137Z" />
<glyph unicode="&#xbb;" d="M638 141Q615 141 598 156T581 196Q581 223 605 256T669 329L986 648V475L669 789Q629 828 605 861T581 922Q581 944 597 960T638 977Q664 977 698 958T771 903L946 732Q989 694 1019 650T1049 559Q1049 517 1029 479T947 387L771 215Q732
180 698 161T638 141ZM203 141Q180 141 163 156T146 196Q146 223 170 256T234 329L551 648V475L234 789Q194 828 170 861T146 922Q146 944 162 960T203 977Q229 977 263 958T336 903L511 732Q554 694 584 650T614 559Q614 517 594 479T512 387L336 215Q297 180
263 161T203 141Z" />
<glyph unicode="&#xbc;" d="M113 620Q23 620 23 677Q23 734 113 734H204V1092Q181 1081 149 1074T85 1066Q62 1066 39 1077T16 1122Q16 1156 39 1168T87 1182Q123 1183 155 1192T207 1217Q222 1227 244 1235T288 1244Q330 1244 344 1216T358 1139V734H448Q538
734 538 677Q538 620 448 620H113ZM1017 -8Q942 -8 942 80V120H710Q666 120 640 139T614 195Q614 212 619 230T636 267L822 531Q850 571 878 596T956 621H997Q1037 621 1059 598T1082 530V233H1130Q1164 233 1183 219T1202 176Q1202 149 1183 135T1130 120H1082V80Q1082
35 1064 14T1017 -8ZM767 233H942V492L767 233ZM375 358Q355 358 338 373T320 413Q320 437 330 450T360 476L900 852Q927 872 943 877T976 882Q995 882 1012 869T1029 828Q1029 791 987 762L449 387Q421 368 406 363T375 358Z" />
<glyph unicode="&#xbd;" d="M87 620Q-3 620 -3 677Q-3 734 87 734H178V1092Q155 1081 123 1074T59 1066Q36 1066 13 1077T-10 1122Q-10 1156 13 1168T61 1182Q97 1183 129 1192T181 1217Q196 1227 218 1235T262 1244Q304 1244 318 1216T332 1139V734H422Q512 734
512 677Q512 620 422 620H87ZM354 358Q334 358 317 373T299 413Q299 437 309 450T339 476L879 852Q906 872 922 877T955 882Q974 882 991 869T1008 828Q1008 791 966 762L428 387Q400 368 385 363T354 358ZM1238 440Q1238 387 1198 335T1101 238T991 161T916 114H1146Q1236
114 1236 57Q1236 0 1146 0H803Q759 0 734 17T709 61Q709 92 725 111T773 149Q840 191 911 240T1032 340T1082 436Q1082 471 1056 491T975 512Q936 512 905 499T851 467Q831 451 815 441T778 431Q754 431 733 448T712 490Q712 508 723 528T755 563Q789 589 847
607T979 625Q1102 625 1170 581T1238 440Z" />
<glyph unicode="&#xbe;" d="M31 723Q31 748 50 767T94 787Q117 787 131 780T159 761Q177 746 204 735T277 723Q314 723 344 732T393 759T411 799Q411 832 364 853T265 881Q250 884 232 895T213 934Q213 966 232 976T265 990Q317 997 356 1015T395 1064Q395 1085
379 1100T337 1123T278 1132Q239 1132 212 1121T168 1095Q154 1083 139 1075T100 1066Q75 1066 60 1085T45 1130Q45 1146 53 1163T81 1194Q116 1218 166 1231T278 1245Q346 1245 405 1228T500 1175T536 1082Q536 1028 500 990T410 938Q472 925 511 888T551 792Q551
704 472 657T279 609Q215 609 161 623T69 661Q49 673 40 689T31 723ZM375 358Q355 358 338 373T320 413Q320 437 330 450T360 476L900 852Q927 872 943 877T976 882Q995 882 1012 869T1029 828Q1029 791 987 762L449 387Q421 368 406 363T375 358ZM1017 -8Q942
-8 942 80V120H710Q666 120 640 139T614 195Q614 212 619 230T636 267L822 531Q850 571 878 596T956 621H997Q1037 621 1059 598T1082 530V233H1130Q1164 233 1183 219T1202 176Q1202 149 1183 135T1130 120H1082V80Q1082 35 1064 14T1017 -8ZM767 233H942V492L767
233Z" />
<glyph unicode="&#xbf;" d="M703 570Q759 570 788 538T817 466Q817 387 786 329T707 228T607 150Q548 107 501 62T454 -42Q454 -99 484 -131T563 -175T663 -188Q747 -188 800 -158T890 -91Q915 -72 940 -59T1004 -45Q1043 -45 1067 -71T1092 -140Q1092 -163 1080
-191T1038 -243Q997 -282 940 -315T812 -369T658 -390Q532 -390 429 -355T265 -247T203 -61Q203 19 235 75T317 174T422 256Q488 303 535 351T587 465Q592 505 619 537T703 570ZM693 976Q758 976 804 931T850 820Q850 758 804 713T693 667Q629 667 583 712T537
820Q537 886 583 931T693 976Z" />
<glyph unicode="&#xc0;" d="M204 -19Q149 -19 115 12T81 100Q81 113 83 127T89 157L385 1084Q405 1153 456 1197T572 1241H664Q730 1241 780 1197T851 1084L1147 157Q1152 141 1154 127T1156 100Q1156 43 1122 12T1032 -19Q963 -19 930 16T880 122L824 296H413L357
122Q340 51 307 16T204 -19ZM461 495H776L635 978Q630 997 626 1014T618 1046Q615 1032 611 1015T602 978L461 495ZM675 1313Q628 1313 585 1330T496 1388L409 1472Q371 1505 371 1539Q371 1563 390 1578T440 1593H482Q540 1593 570 1575T637 1506L691 1434Q726
1386 726 1355Q726 1336 712 1325T675 1313Z" />
<glyph unicode="&#xc1;" d="M204 -19Q149 -19 115 12T81 100Q81 113 83 127T89 157L385 1084Q405 1153 456 1197T572 1241H664Q730 1241 780 1197T851 1084L1147 157Q1152 141 1154 127T1156 100Q1156 43 1122 12T1032 -19Q963 -19 930 16T880 122L824 296H413L357
122Q340 51 307 16T204 -19ZM461 495H776L635 978Q630 997 626 1014T618 1046Q615 1032 611 1015T602 978L461 495ZM586 1321Q563 1321 549 1332T535 1364Q535 1394 570 1442L624 1514Q662 1565 691 1583T779 1601H821Q852 1601 871 1586T890 1547Q890 1514 852
1480L765 1397Q719 1356 676 1339T586 1321Z" />
<glyph unicode="&#xc2;" d="M204 -19Q149 -19 115 12T81 100Q81 113 83 127T89 157L385 1084Q405 1153 456 1197T572 1241H664Q730 1241 780 1197T851 1084L1147 157Q1152 141 1154 127T1156 100Q1156 43 1122 12T1032 -19Q963 -19 930 16T880 122L824 296H413L357
122Q340 51 307 16T204 -19ZM461 495H776L635 978Q630 997 626 1014T618 1046Q615 1032 611 1015T602 978L461 495ZM844 1429Q868 1403 868 1378Q868 1350 847 1331T790 1312Q760 1312 739 1328T699 1368L619 1457L540 1367Q520 1343 500 1328T449 1312Q414 1312
393 1331T372 1379Q372 1390 377 1403T395 1429L452 1489Q493 1535 529 1558T619 1582Q674 1582 710 1559T787 1489L844 1429Z" />
<glyph unicode="&#xc3;" d="M204 -19Q149 -19 115 12T81 100Q81 113 83 127T89 157L385 1084Q405 1153 456 1197T572 1241H664Q730 1241 780 1197T851 1084L1147 157Q1152 141 1154 127T1156 100Q1156 43 1122 12T1032 -19Q963 -19 930 16T880 122L824 296H413L357
122Q340 51 307 16T204 -19ZM461 495H776L635 978Q630 997 626 1014T618 1046Q615 1032 611 1015T602 978L461 495ZM987 1331Q937 1331 909 1346T855 1383Q836 1399 817 1409T770 1419Q742 1419 719 1410T676 1388Q661 1379 648 1373T622 1367Q604 1367 591 1384T578
1425Q578 1474 628 1520Q653 1540 686 1555T760 1571Q811 1571 839 1558T889 1522Q906 1505 926 1493T978 1481Q1006 1481 1026 1490T1063 1512Q1075 1522 1088 1528T1118 1534Q1139 1534 1156 1520T1173 1475Q1173 1441 1150 1415Q1127 1387 1086 1359T987 1331Z"
/>
<glyph unicode="&#xc4;" d="M204 -19Q149 -19 115 12T81 100Q81 113 83 127T89 157L385 1084Q405 1153 456 1197T572 1241H664Q730 1241 780 1197T851 1084L1147 157Q1152 141 1154 127T1156 100Q1156 43 1122 12T1032 -19Q963 -19 930 16T880 122L824 296H413L357
122Q340 51 307 16T204 -19ZM461 495H776L635 978Q630 997 626 1014T618 1046Q615 1032 611 1015T602 978L461 495ZM410 1340Q348 1340 305 1383T261 1489Q261 1553 304 1597T410 1641Q473 1641 516 1597T560 1489Q560 1426 517 1383T410 1340ZM826 1340Q764 1340
721 1383T677 1489Q677 1553 720 1597T826 1641Q889 1641 933 1597T977 1489Q977 1426 933 1383T826 1340Z" />
<glyph unicode="&#xc5;" d="M204 -19Q149 -19 115 12T81 100Q81 113 83 127T89 157L385 1084Q405 1153 456 1197T572 1241H664Q730 1241 780 1197T851 1084L1147 157Q1152 141 1154 127T1156 100Q1156 43 1122 12T1032 -19Q963 -19 930 16T880 122L824 296H413L357
122Q340 51 307 16T204 -19ZM461 495H776L635 978Q630 997 626 1014T618 1046Q615 1032 611 1015T602 978L461 495ZM620 1305Q539 1305 481 1361T422 1501Q422 1555 449 1599T521 1669T620 1696Q672 1696 716 1670T788 1599T815 1502Q815 1417 757 1361T620 1305ZM620
1434Q647 1434 665 1453T684 1502Q684 1528 666 1546T620 1564Q591 1564 573 1546T554 1502Q554 1472 572 1453T620 1434Z" />
<glyph unicode="&#xc6;" d="M782 -1Q623 -1 623 146V281H379L316 109Q298 45 265 13T164 -19Q133 -19 108 -11T69 16T54 69Q54 85 57 104T68 147L414 1114Q435 1176 471 1207T563 1238H1060Q1138 1238 1168 1215T1199 1149Q1199 1106 1169 1083T1060 1060H869V697H1061Q1108
697 1132 671T1156 608Q1156 573 1132 547T1061 520H869V177H1060Q1138 177 1168 154T1199 88Q1199 45 1169 22T1060 -1H782ZM432 478H623V1039Q622 1037 621 1035T619 1030L432 478Z" />
<glyph unicode="&#xc7;" d="M647 -454Q612 -454 584 -451T533 -439Q471 -415 471 -371Q471 -343 489 -329T531 -314Q552 -314 582 -321Q599 -325 620 -326T665 -328Q725 -328 764 -311T803 -259Q803 -237 788 -227T747 -216Q723 -216 703 -220T665 -230Q648 -235
631 -238T597 -242Q563 -242 547 -225T531 -181Q531 -172 534 -161T540 -139L586 -11Q495 1 411 42T259 159T153 346T113 614Q113 795 164 917T301 1112T490 1218T695 1250Q787 1250 867 1224T1009 1152T1105 1049T1139 931Q1139 878 1105 846T1022 814Q964 814
941 839T902 900Q891 934 867 968T802 1027T695 1051Q619 1051 550 1007T437 866T393 614Q393 459 436 363T549 223T695 179Q761 179 802 202T867 261T902 329Q917 364 940 390T1022 416Q1070 416 1104 384T1139 299Q1139 241 1108 186T1021 87T891 15T732 -19L689
-149Q716 -129 750 -120T821 -111Q863 -111 903 -125T970 -170T997 -250Q997 -318 948 -363T819 -431T647 -454Z" />
<glyph unicode="&#xc8;" d="M1072 1139Q1072 1040 920 1040H469V719H832Q910 719 941 694T972 620Q972 572 941 547T832 521H469V198H920Q1072 198 1072 99Q1072 0 920 0H353Q194 0 194 159V1080Q194 1238 353 1238H920Q1072 1238 1072 1139ZM691 1310Q644 1310
601 1327T512 1385L425 1469Q387 1502 387 1536Q387 1560 406 1575T456 1590H498Q556 1590 586 1572T653 1503L707 1431Q742 1383 742 1352Q742 1333 728 1322T691 1310Z" />
<glyph unicode="&#xc9;" d="M1072 1139Q1072 1040 920 1040H469V719H832Q910 719 941 694T972 620Q972 572 941 547T832 521H469V198H920Q1072 198 1072 99Q1072 0 920 0H353Q194 0 194 159V1080Q194 1238 353 1238H920Q1072 1238 1072 1139ZM602 1318Q579 1318
565 1329T551 1361Q551 1391 586 1439L640 1511Q678 1562 707 1580T795 1598H837Q868 1598 887 1583T906 1544Q906 1511 868 1477L781 1394Q735 1353 692 1336T602 1318Z" />
<glyph unicode="&#xca;" d="M1072 1139Q1072 1040 920 1040H469V719H832Q910 719 941 694T972 620Q972 572 941 547T832 521H469V198H920Q1072 198 1072 99Q1072 0 920 0H353Q194 0 194 159V1080Q194 1238 353 1238H920Q1072 1238 1072 1139ZM860 1426Q884 1400
884 1375Q884 1347 863 1328T806 1309Q776 1309 755 1325T715 1365L635 1454L556 1364Q536 1340 516 1325T465 1309Q430 1309 409 1328T388 1376Q388 1387 393 1400T411 1426L468 1486Q509 1532 545 1555T635 1579Q690 1579 726 1556T803 1486L860 1426Z" />
<glyph unicode="&#xcb;" d="M1072 1139Q1072 1040 920 1040H469V719H832Q910 719 941 694T972 620Q972 572 941 547T832 521H469V198H920Q1072 198 1072 99Q1072 0 920 0H353Q194 0 194 159V1080Q194 1238 353 1238H920Q1072 1238 1072 1139ZM426 1337Q364 1337
321 1380T277 1486Q277 1550 320 1594T426 1638Q489 1638 532 1594T576 1486Q576 1423 533 1380T426 1337ZM842 1337Q780 1337 737 1380T693 1486Q693 1550 736 1594T842 1638Q905 1638 949 1594T993 1486Q993 1423 949 1380T842 1337Z" />
<glyph unicode="&#xcc;" d="M308 0Q236 0 200 25T163 99Q163 147 199 172T308 198H485V1040H308Q236 1040 200 1065T163 1139Q163 1187 199 1212T308 1238H921Q994 1238 1030 1213T1066 1139Q1066 1091 1030 1066T921 1040H747V198H921Q994 198 1030 173T1066
99Q1066 51 1030 26T921 0H308ZM674 1310Q627 1310 584 1327T495 1385L408 1469Q370 1502 370 1536Q370 1560 389 1575T439 1590H481Q539 1590 569 1572T636 1503L690 1431Q725 1383 725 1352Q725 1333 711 1322T674 1310Z" />
<glyph unicode="&#xcd;" d="M308 0Q236 0 200 25T163 99Q163 147 199 172T308 198H485V1040H308Q236 1040 200 1065T163 1139Q163 1187 199 1212T308 1238H921Q994 1238 1030 1213T1066 1139Q1066 1091 1030 1066T921 1040H747V198H921Q994 198 1030 173T1066
99Q1066 51 1030 26T921 0H308ZM585 1318Q562 1318 548 1329T534 1361Q534 1391 569 1439L623 1511Q661 1562 690 1580T778 1598H820Q851 1598 870 1583T889 1544Q889 1511 851 1477L764 1394Q718 1353 675 1336T585 1318Z" />
<glyph unicode="&#xce;" d="M308 0Q236 0 200 25T163 99Q163 147 199 172T308 198H485V1040H308Q236 1040 200 1065T163 1139Q163 1187 199 1212T308 1238H921Q994 1238 1030 1213T1066 1139Q1066 1091 1030 1066T921 1040H747V198H921Q994 198 1030 173T1066
99Q1066 51 1030 26T921 0H308ZM843 1426Q867 1400 867 1375Q867 1347 846 1328T789 1309Q759 1309 738 1325T698 1365L618 1454L539 1364Q519 1340 499 1325T448 1309Q413 1309 392 1328T371 1376Q371 1387 376 1400T394 1426L451 1486Q492 1532 528 1555T618
1579Q673 1579 709 1556T786 1486L843 1426Z" />
<glyph unicode="&#xcf;" d="M308 0Q236 0 200 25T163 99Q163 147 199 172T308 198H485V1040H308Q236 1040 200 1065T163 1139Q163 1187 199 1212T308 1238H921Q994 1238 1030 1213T1066 1139Q1066 1091 1030 1066T921 1040H747V198H921Q994 198 1030 173T1066
99Q1066 51 1030 26T921 0H308ZM665 1337Q603 1337 560 1380T516 1486Q516 1550 559 1594T665 1638Q728 1638 771 1594T815 1486Q815 1423 772 1380T665 1337ZM1081 1337Q1019 1337 976 1380T932 1486Q932 1550 975 1594T1081 1638Q1144 1638 1188 1594T1232 1486Q1232
1423 1188 1380T1081 1337Z" />
<glyph unicode="&#xd0;" d="M147 533Q-12 533 -12 619Q-12 705 147 705H502Q661 705 661 619Q661 533 502 533H147ZM533 1238Q595 1238 674 1226T834 1179T986 1076T1098 896T1141 619Q1141 454 1099 343T986 163T835 59T674 12T533 0H287Q129 0 129 159V1080Q129
1238 287 1238H533ZM531 198Q601 198 661 221T767 295T838 425T864 619Q864 733 839 813T768 943T662 1016T531 1040H403V198H531Z" />
<glyph unicode="&#xd1;" d="M256 -7Q130 -7 130 151V1076Q130 1156 180 1198T307 1241H314Q384 1241 438 1206T520 1104L851 407V1084Q851 1241 979 1241Q1038 1241 1072 1202T1106 1084V153Q1106 76 1059 35T936 -7H930Q860 -7 810 29T730 130L382 856V151Q382
-7 256 -7ZM724 1346Q674 1346 646 1361T592 1397Q573 1413 554 1423T506 1433Q478 1433 455 1424T412 1403Q380 1382 359 1382Q340 1382 327 1399T314 1439Q314 1488 365 1534Q389 1555 423 1570T497 1586Q548 1586 576 1572T625 1537Q643 1520 662 1508T715 1496Q743
1496 763 1504T799 1526Q811 1536 824 1542T854 1549Q875 1549 892 1534T910 1489Q910 1455 887 1429Q864 1401 823 1374T724 1346Z" />
<glyph unicode="&#xd2;" d="M620 -21Q519 -21 421 13T242 121T113 318T65 615Q65 790 113 911T241 1107T420 1216T620 1250Q720 1250 818 1216T996 1108T1124 912T1172 615Q1172 440 1124 318T996 122T818 13T620 -21ZM620 178Q697 178 759 226T856 372T892 615Q892
760 857 856T759 1002T620 1051Q541 1051 479 1002T381 857T345 615Q345 469 381 372T479 227T620 178ZM676 1318Q629 1318 586 1335T497 1393L410 1477Q372 1510 372 1544Q372 1568 391 1583T441 1598H483Q541 1598 571 1580T638 1511L692 1439Q727 1391 727 1360Q727
1341 713 1330T676 1318Z" />
<glyph unicode="&#xd3;" d="M620 -21Q519 -21 421 13T242 121T113 318T65 615Q65 790 113 911T241 1107T420 1216T620 1250Q720 1250 818 1216T996 1108T1124 912T1172 615Q1172 440 1124 318T996 122T818 13T620 -21ZM620 178Q697 178 759 226T856 372T892 615Q892
760 857 856T759 1002T620 1051Q541 1051 479 1002T381 857T345 615Q345 469 381 372T479 227T620 178ZM587 1326Q564 1326 550 1337T536 1369Q536 1399 571 1447L625 1519Q663 1570 692 1588T780 1606H822Q853 1606 872 1591T891 1552Q891 1519 853 1485L766 1402Q720
1361 677 1344T587 1326Z" />
<glyph unicode="&#xd4;" d="M620 -21Q519 -21 421 13T242 121T113 318T65 615Q65 790 113 911T241 1107T420 1216T620 1250Q720 1250 818 1216T996 1108T1124 912T1172 615Q1172 440 1124 318T996 122T818 13T620 -21ZM620 178Q697 178 759 226T856 372T892 615Q892
760 857 856T759 1002T620 1051Q541 1051 479 1002T381 857T345 615Q345 469 381 372T479 227T620 178ZM844 1434Q868 1408 868 1383Q868 1355 847 1336T790 1317Q760 1317 739 1333T699 1373L619 1462L540 1372Q520 1348 500 1333T449 1317Q414 1317 393 1336T372
1384Q372 1395 377 1408T395 1434L452 1494Q493 1540 529 1563T619 1587Q674 1587 710 1564T787 1494L844 1434Z" />
<glyph unicode="&#xd5;" d="M620 -21Q519 -21 421 13T242 121T113 318T65 615Q65 790 113 911T241 1107T420 1216T620 1250Q720 1250 818 1216T996 1108T1124 912T1172 615Q1172 440 1124 318T996 122T818 13T620 -21ZM620 178Q697 178 759 226T856 372T892 615Q892
760 857 856T759 1002T620 1051Q541 1051 479 1002T381 857T345 615Q345 469 381 372T479 227T620 178ZM732 1354Q682 1354 654 1369T600 1405Q581 1421 562 1431T514 1441Q486 1441 463 1432T420 1411Q388 1390 367 1390Q348 1390 335 1407T322 1447Q322 1496
373 1542Q397 1563 431 1578T505 1594Q556 1594 584 1580T633 1545Q651 1528 670 1516T723 1504Q751 1504 771 1512T807 1534Q819 1544 832 1550T862 1557Q883 1557 900 1542T918 1497Q918 1463 895 1437Q872 1409 831 1382T732 1354Z" />
<glyph unicode="&#xd6;" d="M620 -21Q519 -21 421 13T242 121T113 318T65 615Q65 790 113 911T241 1107T420 1216T620 1250Q720 1250 818 1216T996 1108T1124 912T1172 615Q1172 440 1124 318T996 122T818 13T620 -21ZM620 178Q697 178 759 226T856 372T892 615Q892
760 857 856T759 1002T620 1051Q541 1051 479 1002T381 857T345 615Q345 469 381 372T479 227T620 178ZM411 1345Q349 1345 306 1388T262 1494Q262 1558 305 1602T411 1646Q474 1646 517 1602T561 1494Q561 1431 518 1388T411 1345ZM827 1345Q765 1345 722 1388T678
1494Q678 1558 721 1602T827 1646Q890 1646 934 1602T978 1494Q978 1431 934 1388T827 1345Z" />
<glyph unicode="&#xd7;" d="M305 308Q277 336 277 371Q277 427 345 494L660 810Q728 877 782 877Q818 877 845 849Q873 821 873 786Q873 730 807 663L491 348Q424 281 369 281Q332 281 305 308ZM847 308Q818 280 783 280Q728 280 661 347L345 663Q278 731 278
786Q278 820 306 849Q334 878 369 878Q424 878 492 810L808 494Q875 428 875 372Q875 337 847 308Z" />
<glyph unicode="&#xd8;" d="M1047 1321Q1075 1321 1096 1304T1118 1253Q1118 1234 1110 1211T1082 1158L326 23Q290 -30 264 -54T201 -79Q173 -79 150 -61T127 -5Q127 15 135 38T162 89L915 1218Q950 1272 976 1296T1047 1321ZM620 -21Q519 -21 421 13T242 121T113
318T65 615Q65 790 113 911T241 1107T420 1216T620 1250Q720 1250 818 1216T996 1108T1124 912T1172 615Q1172 440 1124 318T996 122T818 13T620 -21ZM620 178Q697 178 759 226T856 372T892 615Q892 760 857 856T759 1002T620 1051Q541 1051 479 1002T381 857T345
615Q345 469 381 372T479 227T620 178Z" />
<glyph unicode="&#xd9;" d="M620 -21Q480 -21 365 33T180 206T111 519V1080Q111 1238 249 1238Q386 1238 386 1080V534Q386 364 447 271T620 178Q732 178 792 271T852 534V1080Q852 1238 989 1238Q1127 1238 1127 1080V519Q1127 325 1059 206T876 33T620 -21ZM674
1310Q627 1310 584 1327T495 1385L408 1469Q370 1502 370 1536Q370 1560 389 1575T439 1590H481Q539 1590 569 1572T636 1503L690 1431Q725 1383 725 1352Q725 1333 711 1322T674 1310Z" />
<glyph unicode="&#xda;" d="M620 -21Q480 -21 365 33T180 206T111 519V1080Q111 1238 249 1238Q386 1238 386 1080V534Q386 364 447 271T620 178Q732 178 792 271T852 534V1080Q852 1238 989 1238Q1127 1238 1127 1080V519Q1127 325 1059 206T876 33T620 -21ZM585
1318Q562 1318 548 1329T534 1361Q534 1391 569 1439L623 1511Q661 1562 690 1580T778 1598H820Q851 1598 870 1583T889 1544Q889 1511 851 1477L764 1394Q718 1353 675 1336T585 1318Z" />
<glyph unicode="&#xdb;" d="M620 -21Q480 -21 365 33T180 206T111 519V1080Q111 1238 249 1238Q386 1238 386 1080V534Q386 364 447 271T620 178Q732 178 792 271T852 534V1080Q852 1238 989 1238Q1127 1238 1127 1080V519Q1127 325 1059 206T876 33T620 -21ZM843
1426Q867 1400 867 1375Q867 1347 846 1328T789 1309Q759 1309 738 1325T698 1365L618 1454L539 1364Q519 1340 499 1325T448 1309Q413 1309 392 1328T371 1376Q371 1387 376 1400T394 1426L451 1486Q492 1532 528 1555T618 1579Q673 1579 709 1556T786 1486L843
1426Z" />
<glyph unicode="&#xdc;" d="M620 -21Q480 -21 365 33T180 206T111 519V1080Q111 1238 249 1238Q386 1238 386 1080V534Q386 364 447 271T620 178Q732 178 792 271T852 534V1080Q852 1238 989 1238Q1127 1238 1127 1080V519Q1127 325 1059 206T876 33T620 -21ZM665
1337Q603 1337 560 1380T516 1486Q516 1550 559 1594T665 1638Q728 1638 771 1594T815 1486Q815 1423 772 1380T665 1337ZM1081 1337Q1019 1337 976 1380T932 1486Q932 1550 975 1594T1081 1638Q1144 1638 1188 1594T1232 1486Q1232 1423 1188 1380T1081 1337Z"
/>
<glyph unicode="&#xdd;" d="M616 -19Q479 -19 479 139V489Q454 514 429 559L156 1041Q130 1084 130 1133Q130 1177 160 1214T254 1251Q305 1251 334 1222T394 1130L617 698L840 1132Q872 1194 903 1222T985 1251Q1047 1251 1074 1215T1102 1135Q1102 1112 1095
1087T1075 1041L803 559Q791 538 779 521T754 490V139Q754 -19 616 -19ZM580 1318Q557 1318 543 1329T529 1361Q529 1391 564 1439L618 1511Q656 1562 685 1580T773 1598H815Q846 1598 865 1583T884 1544Q884 1511 846 1477L759 1394Q713 1353 670 1336T580 1318Z"
/>
<glyph unicode="&#xde;" d="M617 978Q665 978 726 973T850 950T966 891T1051 783T1084 609Q1084 502 1052 432T966 321T851 260T727 235T617 229H458V118Q458 56 423 19T323 -19Q187 -19 187 138V1090Q187 1248 323 1248Q458 1248 458 1090V978H617ZM580 421Q622
421 664 426T740 449T796 505T818 609Q818 670 797 706T741 759T664 781T580 786H458V421H580Z" />
<glyph unicode="&#xdf;" d="M864 745Q864 727 885 711T937 675Q977 651 1025 612T1108 512T1144 359Q1144 217 1078 134T906 15T678 -21Q617 -21 563 -9T474 31T440 104Q440 139 455 158T493 184T533 191Q548 191 562 190T590 185Q608 182 629 180T678 177Q724
177 763 186T832 217T877 275T893 364Q893 412 873 449T820 514T750 568Q701 602 664 644T627 745Q627 808 652 842T708 903Q737 928 760 959T784 1036Q784 1074 770 1102T731 1149T672 1176T597 1185Q549 1185 506 1170T430 1125T379 1050T360 943V159Q360 0 231
0Q101 0 101 159V961Q101 1078 145 1159T263 1289T424 1361T598 1383Q714 1383 811 1347T966 1238T1025 1057Q1025 964 989 910T916 822Q894 801 879 783T864 745Z" />
<glyph unicode="&#xe0;" d="M928 -3Q857 -3 825 25T789 103L785 126Q771 97 733 63T632 5T485 -19Q377 -19 291 18T155 127T105 301Q105 404 162 472T315 575T524 609Q588 609 640 597T727 568T777 540V638Q777 670 759 695T709 739T638 766T555 776Q495 776 441
765T345 739Q325 732 307 729T271 726Q223 726 193 749T162 818Q162 861 192 884T262 924Q313 945 398 960T583 975Q670 975 749 955T892 897T991 801T1027 670V192H1075Q1125 192 1151 167T1177 96Q1177 52 1146 25T1036 -3H928ZM777 371Q763 387 730 404T652
434T560 446Q472 446 415 414T357 308Q357 256 380 224T446 177T542 163Q599 163 647 188T729 246T777 305V371ZM896 1082Q868 1082 838 1093T770 1136L658 1242Q619 1277 619 1309Q619 1332 636 1347T685 1363H713Q771 1363 802 1347T865 1275L916 1202Q945 1153
945 1125Q945 1100 930 1091T896 1082Z" />
<glyph unicode="&#xe1;" d="M928 -3Q857 -3 825 25T789 103L785 126Q771 97 733 63T632 5T485 -19Q377 -19 291 18T155 127T105 301Q105 404 162 472T315 575T524 609Q588 609 640 597T727 568T777 540V638Q777 670 759 695T709 739T638 766T555 776Q495 776 441
765T345 739Q325 732 307 729T271 726Q223 726 193 749T162 818Q162 861 192 884T262 924Q313 945 398 960T583 975Q670 975 749 955T892 897T991 801T1027 670V192H1075Q1125 192 1151 167T1177 96Q1177 52 1146 25T1036 -3H928ZM777 371Q763 387 730 404T652
434T560 446Q472 446 415 414T357 308Q357 256 380 224T446 177T542 163Q599 163 647 188T729 246T777 305V371ZM750 1082Q732 1082 716 1091T700 1125Q700 1153 729 1202L780 1275Q812 1331 843 1347T932 1363H961Q992 1363 1009 1348T1026 1309Q1026 1276 987
1242L875 1136Q839 1104 808 1093T750 1082Z" />
<glyph unicode="&#xe2;" d="M928 -3Q857 -3 825 25T789 103L785 126Q771 97 733 63T632 5T485 -19Q377 -19 291 18T155 127T105 301Q105 404 162 472T315 575T524 609Q588 609 640 597T727 568T777 540V638Q777 670 759 695T709 739T638 766T555 776Q495 776 441
765T345 739Q325 732 307 729T271 726Q223 726 193 749T162 818Q162 861 192 884T262 924Q313 945 398 960T583 975Q670 975 749 955T892 897T991 801T1027 670V192H1075Q1125 192 1151 167T1177 96Q1177 52 1146 25T1036 -3H928ZM777 371Q763 387 730 404T652
434T560 446Q472 446 415 414T357 308Q357 256 380 224T446 177T542 163Q599 163 647 188T729 246T777 305V371ZM835 1182Q859 1156 859 1130Q859 1102 838 1084T781 1065Q751 1065 730 1081T690 1120L610 1210L531 1120Q511 1095 491 1080T440 1065Q405 1065 384
1083T363 1131Q363 1158 386 1182L443 1241Q484 1287 520 1310T610 1334Q665 1334 701 1311T778 1241L835 1182Z" />
<glyph unicode="&#xe3;" d="M928 -3Q857 -3 825 25T789 103L785 126Q771 97 733 63T632 5T485 -19Q377 -19 291 18T155 127T105 301Q105 404 162 472T315 575T524 609Q588 609 640 597T727 568T777 540V638Q777 670 759 695T709 739T638 766T555 776Q495 776 441
765T345 739Q325 732 307 729T271 726Q223 726 193 749T162 818Q162 861 192 884T262 924Q313 945 398 960T583 975Q670 975 749 955T892 897T991 801T1027 670V192H1075Q1125 192 1151 167T1177 96Q1177 52 1146 25T1036 -3H928ZM777 371Q763 387 730 404T652
434T560 446Q472 446 415 414T357 308Q357 256 380 224T446 177T542 163Q599 163 647 188T729 246T777 305V371ZM978 1060Q928 1060 900 1075T846 1111Q827 1127 808 1137T760 1147Q732 1147 709 1138T666 1117Q634 1096 613 1096Q594 1096 581 1113T568 1153Q568
1202 619 1248Q643 1269 677 1284T751 1300Q802 1300 830 1286T879 1251Q897 1234 916 1222T969 1210Q997 1210 1017 1218T1053 1240Q1065 1250 1078 1256T1108 1263Q1129 1263 1146 1248T1164 1203Q1164 1169 1141 1143Q1118 1115 1077 1088T978 1060Z" />
<glyph unicode="&#xe4;" d="M928 -3Q857 -3 825 25T789 103L785 126Q771 97 733 63T632 5T485 -19Q377 -19 291 18T155 127T105 301Q105 404 162 472T315 575T524 609Q588 609 640 597T727 568T777 540V638Q777 670 759 695T709 739T638 766T555 776Q495 776 441
765T345 739Q325 732 307 729T271 726Q223 726 193 749T162 818Q162 861 192 884T262 924Q313 945 398 960T583 975Q670 975 749 955T892 897T991 801T1027 670V192H1075Q1125 192 1151 167T1177 96Q1177 52 1146 25T1036 -3H928ZM777 371Q763 387 730 404T652
434T560 446Q472 446 415 414T357 308Q357 256 380 224T446 177T542 163Q599 163 647 188T729 246T777 305V371ZM657 1084Q595 1084 552 1127T508 1233Q508 1298 551 1341T657 1385Q720 1385 763 1342T807 1233Q807 1171 764 1128T657 1084ZM1073 1084Q1011 1084
968 1127T924 1233Q924 1298 967 1341T1073 1385Q1136 1385 1180 1342T1224 1233Q1224 1171 1180 1128T1073 1084Z" />
<glyph unicode="&#xe5;" d="M928 -3Q857 -3 825 25T789 103L785 126Q771 97 733 63T632 5T485 -19Q377 -19 291 18T155 127T105 301Q105 404 162 472T315 575T524 609Q588 609 640 597T727 568T777 540V638Q777 670 759 695T709 739T638 766T555 776Q495 776 441
765T345 739Q325 732 307 729T271 726Q223 726 193 749T162 818Q162 861 192 884T262 924Q313 945 398 960T583 975Q670 975 749 955T892 897T991 801T1027 670V192H1075Q1125 192 1151 167T1177 96Q1177 52 1146 25T1036 -3H928ZM777 371Q763 387 730 404T652
434T560 446Q472 446 415 414T357 308Q357 256 380 224T446 177T542 163Q599 163 647 188T729 246T777 305V371ZM612 1038Q531 1038 473 1094T414 1234Q414 1288 440 1331T512 1402T612 1429Q664 1429 708 1402T779 1331T806 1234Q806 1150 748 1094T612 1038ZM612
1167Q638 1167 657 1185T676 1235Q676 1261 657 1279T612 1297Q583 1297 564 1279T545 1235Q545 1204 564 1186T612 1167Z" />
<glyph unicode="&#xe6;" d="M346 -21Q255 -21 178 17T54 127T7 301Q7 405 49 477T163 588T319 626Q397 626 448 605T517 569V638Q517 681 495 712T431 759T334 776Q297 776 258 768T186 748Q168 743 152 741T119 738Q74 738 50 762T25 828Q25 870 57 899T141 941Q192
956 244 965T361 975Q424 975 477 962T572 923T639 857Q684 917 747 946T883 975Q979 975 1057 926T1183 783T1230 558Q1230 482 1209 441T1115 400H725Q730 327 751 278T810 203T899 178Q952 178 991 197T1071 246Q1085 255 1099 261T1129 268Q1171 268 1192 241T1214
176Q1214 134 1186 103T1121 54Q1076 23 1019 1T886 -21Q808 -21 742 13T629 116Q596 65 550 35T452 -8T346 -21ZM226 316Q226 244 267 204T371 163Q423 163 455 189T502 265T517 387V421Q505 433 486 443T442 461T384 469Q313 469 270 426T226 316ZM725 555H1037Q1037
606 1023 657T976 743T892 777Q846 777 811 753T753 679T725 555Z" />
<glyph unicode="&#xe7;" d="M598 -454Q563 -454 535 -451T484 -439Q422 -415 422 -371Q422 -343 440 -329T482 -314Q503 -314 533 -321Q550 -325 571 -326T616 -328Q676 -328 715 -311T754 -259Q754 -237 739 -227T698 -216Q674 -216 654 -220T616 -230Q599 -235
582 -238T548 -242Q514 -242 498 -225T482 -181Q482 -172 485 -161T491 -139L539 -6Q465 8 395 43T268 137T178 281T145 478Q145 612 191 707T313 861T480 947T661 975Q753 975 829 949T960 881Q999 858 1016 828T1034 768Q1034 719 999 688T917 657Q881 657 856
669T812 704Q786 737 749 757T660 777Q616 777 574 759T498 704T444 611T424 478Q424 401 444 345T498 253T574 198T660 180Q711 180 748 200T812 252Q832 274 856 286T917 299Q964 299 999 269T1034 188Q1034 158 1016 129T960 76Q909 36 839 11T683 -19L640 -149Q667
-129 701 -120T772 -111Q814 -111 854 -125T921 -170T948 -250Q948 -318 899 -363T770 -431T598 -454Z" />
<glyph unicode="&#xe8;" d="M619 -21Q489 -21 376 36T194 204T124 478Q124 601 164 693T274 849T432 943T619 975Q756 975 859 922T1021 775T1079 555Q1079 486 1049 456T946 426H392Q400 346 434 291T520 207T636 178Q718 178 768 202T855 255Q883 274 912 287T974
300Q1018 300 1045 275T1073 204Q1073 165 1052 138T998 86Q939 42 844 11T619 -21ZM401 595H833Q820 687 767 738T622 790Q573 790 529 769T451 705T401 595ZM917 1082Q889 1082 859 1093T791 1136L679 1242Q640 1277 640 1309Q640 1332 657 1347T706 1363H734Q792
1363 823 1347T886 1275L937 1202Q966 1153 966 1125Q966 1100 951 1091T917 1082Z" />
<glyph unicode="&#xe9;" d="M619 -21Q489 -21 376 36T194 204T124 478Q124 601 164 693T274 849T432 943T619 975Q756 975 859 922T1021 775T1079 555Q1079 486 1049 456T946 426H392Q400 346 434 291T520 207T636 178Q718 178 768 202T855 255Q883 274 912 287T974
300Q1018 300 1045 275T1073 204Q1073 165 1052 138T998 86Q939 42 844 11T619 -21ZM401 595H833Q820 687 767 738T622 790Q573 790 529 769T451 705T401 595ZM516 1082Q498 1082 482 1091T466 1125Q466 1153 495 1202L546 1275Q578 1331 609 1347T698 1363H727Q758
1363 775 1348T792 1309Q792 1276 753 1242L641 1136Q605 1104 574 1093T516 1082Z" />
<glyph unicode="&#xea;" d="M619 -21Q489 -21 376 36T194 204T124 478Q124 601 164 693T274 849T432 943T619 975Q756 975 859 922T1021 775T1079 555Q1079 486 1049 456T946 426H392Q400 346 434 291T520 207T636 178Q718 178 768 202T855 255Q883 274 912 287T974
300Q1018 300 1045 275T1073 204Q1073 165 1052 138T998 86Q939 42 844 11T619 -21ZM401 595H833Q820 687 767 738T622 790Q573 790 529 769T451 705T401 595ZM856 1182Q880 1156 880 1130Q880 1102 859 1084T802 1065Q772 1065 751 1081T711 1120L631 1210L552
1120Q532 1095 512 1080T461 1065Q426 1065 405 1083T384 1131Q384 1158 407 1182L464 1241Q505 1287 541 1310T631 1334Q686 1334 722 1311T799 1241L856 1182Z" />
<glyph unicode="&#xeb;" d="M619 -21Q489 -21 376 36T194 204T124 478Q124 601 164 693T274 849T432 943T619 975Q756 975 859 922T1021 775T1079 555Q1079 486 1049 456T946 426H392Q400 346 434 291T520 207T636 178Q718 178 768 202T855 255Q883 274 912 287T974
300Q1018 300 1045 275T1073 204Q1073 165 1052 138T998 86Q939 42 844 11T619 -21ZM401 595H833Q820 687 767 738T622 790Q573 790 529 769T451 705T401 595ZM423 1084Q361 1084 318 1127T274 1233Q274 1298 317 1341T423 1385Q486 1385 529 1342T573 1233Q573
1171 530 1128T423 1084ZM839 1084Q777 1084 734 1127T690 1233Q690 1298 733 1341T839 1385Q902 1385 946 1342T990 1233Q990 1171 946 1128T839 1084Z" />
<glyph unicode="&#xec;" d="M358 0Q280 0 240 25T200 99Q200 147 240 172T358 198H503V754H408Q331 754 291 779T251 853Q251 901 291 926T408 952H603Q762 952 762 794V198H904Q981 198 1021 173T1062 99Q1062 51 1022 26T904 0H358ZM902 1082Q874 1082 844 1093T776
1136L664 1242Q625 1277 625 1309Q625 1332 642 1347T691 1363H719Q777 1363 808 1347T871 1275L922 1202Q951 1153 951 1125Q951 1100 936 1091T902 1082Z" />
<glyph unicode="&#xed;" d="M358 0Q280 0 240 25T200 99Q200 147 240 172T358 198H503V754H408Q331 754 291 779T251 853Q251 901 291 926T408 952H603Q762 952 762 794V198H904Q981 198 1021 173T1062 99Q1062 51 1022 26T904 0H358ZM757 1082Q739 1082 723 1091T707
1125Q707 1153 736 1202L787 1275Q819 1331 850 1347T939 1363H968Q999 1363 1016 1348T1033 1309Q1033 1276 994 1242L882 1136Q846 1104 815 1093T757 1082Z" />
<glyph unicode="&#xee;" d="M358 0Q280 0 240 25T200 99Q200 147 240 172T358 198H503V754H408Q331 754 291 779T251 853Q251 901 291 926T408 952H603Q762 952 762 794V198H904Q981 198 1021 173T1062 99Q1062 51 1022 26T904 0H358ZM841 1182Q865 1156 865 1130Q865
1102 844 1084T787 1065Q757 1065 736 1081T696 1120L616 1210L537 1120Q517 1095 497 1080T446 1065Q411 1065 390 1083T369 1131Q369 1158 392 1182L449 1241Q490 1287 526 1310T616 1334Q671 1334 707 1311T784 1241L841 1182Z" />
<glyph unicode="&#xef;" d="M358 0Q280 0 240 25T200 99Q200 147 240 172T358 198H503V754H408Q331 754 291 779T251 853Q251 901 291 926T408 952H603Q762 952 762 794V198H904Q981 198 1021 173T1062 99Q1062 51 1022 26T904 0H358ZM663 1084Q601 1084 558 1127T514
1233Q514 1298 557 1341T663 1385Q726 1385 769 1342T813 1233Q813 1171 770 1128T663 1084ZM1079 1084Q1017 1084 974 1127T930 1233Q930 1298 973 1341T1079 1385Q1142 1385 1186 1342T1230 1233Q1230 1171 1186 1128T1079 1084Z" />
<glyph unicode="&#xf0;" d="M635 -21Q544 -21 453 7T285 96T163 250T117 478Q117 611 163 705T285 858T452 946T635 975Q674 975 713 964T783 928Q743 1012 685 1079T565 1193L521 1157Q499 1136 479 1125T433 1113Q405 1113 383 1133T360 1188Q360 1214 372 1232T397
1260L429 1286Q415 1294 402 1300T377 1309Q345 1326 318 1350T290 1423Q290 1463 324 1487T401 1511Q426 1511 445 1508T496 1491Q544 1474 594 1444L625 1467Q649 1489 665 1498T706 1508Q739 1508 759 1487T779 1436Q779 1412 768 1395T742 1365L724 1352Q836
1258 934 1123T1092 824T1152 478Q1152 345 1106 251T984 96T817 8T635 -21ZM395 478Q395 398 414 342T468 249T546 195T635 177Q681 177 723 194T800 248T854 341T874 478Q874 557 854 613T800 706T724 760T635 777Q589 777 546 760T469 707T415 614T395 478Z"
/>
<glyph unicode="&#xf1;" d="M943 -10Q805 -10 805 149V517Q805 644 768 707T643 771Q602 771 567 753T504 704T462 632T447 546V149Q447 -10 309 -10Q172 -10 172 149V811Q172 970 309 970Q419 970 440 866L441 817Q487 885 563 929T738 974Q841 974 918 933T1037
801T1080 557V149Q1080 72 1045 31T943 -10ZM738 1060Q688 1060 660 1075T606 1111Q587 1127 568 1137T520 1147Q492 1147 469 1138T426 1117Q394 1096 373 1096Q354 1096 341 1113T328 1153Q328 1202 379 1248Q403 1269 437 1284T511 1300Q562 1300 590 1286T639
1251Q657 1234 676 1222T729 1210Q757 1210 777 1218T813 1240Q825 1250 838 1256T868 1263Q889 1263 906 1248T924 1203Q924 1169 901 1143Q878 1115 837 1088T738 1060Z" />
<glyph unicode="&#xf2;" d="M621 -21Q529 -21 438 7T271 96T148 250T102 478Q102 611 148 705T270 858T438 946T621 975Q711 975 802 947T969 859T1091 705T1137 478Q1137 345 1091 251T970 96T803 8T621 -21ZM621 177Q667 177 709 194T785 248T839 341T859 478Q859
557 840 613T786 706T709 760T621 777Q575 777 532 760T454 707T400 614T380 478Q380 398 400 342T454 249T531 195T621 177ZM899 1082Q871 1082 841 1093T773 1136L661 1242Q622 1277 622 1309Q622 1332 639 1347T688 1363H716Q774 1363 805 1347T868 1275L919
1202Q948 1153 948 1125Q948 1100 933 1091T899 1082Z" />
<glyph unicode="&#xf3;" d="M621 -21Q529 -21 438 7T271 96T148 250T102 478Q102 611 148 705T270 858T438 946T621 975Q711 975 802 947T969 859T1091 705T1137 478Q1137 345 1091 251T970 96T803 8T621 -21ZM621 177Q667 177 709 194T785 248T839 341T859 478Q859
557 840 613T786 706T709 760T621 777Q575 777 532 760T454 707T400 614T380 478Q380 398 400 342T454 249T531 195T621 177ZM754 1082Q736 1082 720 1091T704 1125Q704 1153 733 1202L784 1275Q816 1331 847 1347T936 1363H965Q996 1363 1013 1348T1030 1309Q1030
1276 991 1242L879 1136Q843 1104 812 1093T754 1082Z" />
<glyph unicode="&#xf4;" d="M621 -21Q529 -21 438 7T271 96T148 250T102 478Q102 611 148 705T270 858T438 946T621 975Q711 975 802 947T969 859T1091 705T1137 478Q1137 345 1091 251T970 96T803 8T621 -21ZM621 177Q667 177 709 194T785 248T839 341T859 478Q859
557 840 613T786 706T709 760T621 777Q575 777 532 760T454 707T400 614T380 478Q380 398 400 342T454 249T531 195T621 177ZM838 1182Q862 1156 862 1130Q862 1102 841 1084T784 1065Q754 1065 733 1081T693 1120L613 1210L534 1120Q514 1095 494 1080T443 1065Q408
1065 387 1083T366 1131Q366 1158 389 1182L446 1241Q487 1287 523 1310T613 1334Q668 1334 704 1311T781 1241L838 1182Z" />
<glyph unicode="&#xf5;" d="M621 -21Q529 -21 438 7T271 96T148 250T102 478Q102 611 148 705T270 858T438 946T621 975Q711 975 802 947T969 859T1091 705T1137 478Q1137 345 1091 251T970 96T803 8T621 -21ZM621 177Q667 177 709 194T785 248T839 341T859 478Q859
557 840 613T786 706T709 760T621 777Q575 777 532 760T454 707T400 614T380 478Q380 398 400 342T454 249T531 195T621 177ZM982 1060Q932 1060 904 1075T850 1111Q831 1127 812 1137T764 1147Q736 1147 713 1138T670 1117Q638 1096 617 1096Q598 1096 585 1113T572
1153Q572 1202 623 1248Q647 1269 681 1284T755 1300Q806 1300 834 1286T883 1251Q901 1234 920 1222T973 1210Q1001 1210 1021 1218T1057 1240Q1069 1250 1082 1256T1112 1263Q1133 1263 1150 1248T1168 1203Q1168 1169 1145 1143Q1122 1115 1081 1088T982 1060Z"
/>
<glyph unicode="&#xf6;" d="M621 -21Q529 -21 438 7T271 96T148 250T102 478Q102 611 148 705T270 858T438 946T621 975Q711 975 802 947T969 859T1091 705T1137 478Q1137 345 1091 251T970 96T803 8T621 -21ZM621 177Q667 177 709 194T785 248T839 341T859 478Q859
557 840 613T786 706T709 760T621 777Q575 777 532 760T454 707T400 614T380 478Q380 398 400 342T454 249T531 195T621 177ZM660 1084Q598 1084 555 1127T511 1233Q511 1298 554 1341T660 1385Q723 1385 766 1342T810 1233Q810 1171 767 1128T660 1084ZM1076 1084Q1014
1084 971 1127T927 1233Q927 1298 970 1341T1076 1385Q1139 1385 1183 1342T1227 1233Q1227 1171 1183 1128T1076 1084Z" />
<glyph unicode="&#xf7;" d="M194 579Q194 683 353 683H800Q959 683 959 579Q959 475 800 475H353Q194 475 194 579ZM568 117Q511 117 472 157T432 255Q432 310 471 350T568 390Q625 390 664 350T703 255Q703 198 664 158T568 117ZM568 773Q511 773 472 813T432
911Q432 967 471 1007T568 1047Q625 1047 664 1007T703 911Q703 854 664 814T568 773Z" />
<glyph unicode="&#xf8;" d="M950 1047Q979 1047 1002 1032T1026 982Q1026 964 1018 940T990 887L401 5Q365 -48 343 -70T283 -93Q255 -93 232 -76T209 -23Q209 18 244 72L830 947Q866 1001 888 1024T950 1047ZM621 -21Q529 -21 438 7T271 96T148 250T102 478Q102
611 148 705T270 858T438 946T621 975Q711 975 802 947T969 859T1091 705T1137 478Q1137 345 1091 251T970 96T803 8T621 -21ZM621 177Q667 177 709 194T785 248T839 341T859 478Q859 557 840 613T786 706T709 760T621 777Q575 777 532 760T454 707T400 614T380
478Q380 398 400 342T454 249T531 195T621 177Z" />
<glyph unicode="&#xf9;" d="M305 962Q442 962 442 803V429Q442 302 479 242T603 181Q662 181 706 210T775 291T800 403V803Q800 962 938 962Q1075 962 1075 803V141Q1075 -17 938 -17Q837 -17 811 74L809 121Q758 58 682 18T508 -22Q406 -22 329 17T210 147T167
388V803Q167 962 305 962ZM906 1082Q878 1082 848 1093T780 1136L668 1242Q629 1277 629 1309Q629 1332 646 1347T695 1363H723Q781 1363 812 1347T875 1275L926 1202Q955 1153 955 1125Q955 1100 940 1091T906 1082Z" />
<glyph unicode="&#xfa;" d="M305 962Q442 962 442 803V429Q442 302 479 242T603 181Q662 181 706 210T775 291T800 403V803Q800 962 938 962Q1075 962 1075 803V141Q1075 -17 938 -17Q837 -17 811 74L809 121Q758 58 682 18T508 -22Q406 -22 329 17T210 147T167
388V803Q167 962 305 962ZM761 1082Q743 1082 727 1091T711 1125Q711 1153 740 1202L791 1275Q823 1331 854 1347T943 1363H972Q1003 1363 1020 1348T1037 1309Q1037 1276 998 1242L886 1136Q850 1104 819 1093T761 1082Z" />
<glyph unicode="&#xfb;" d="M305 962Q442 962 442 803V429Q442 302 479 242T603 181Q662 181 706 210T775 291T800 403V803Q800 962 938 962Q1075 962 1075 803V141Q1075 -17 938 -17Q837 -17 811 74L809 121Q758 58 682 18T508 -22Q406 -22 329 17T210 147T167
388V803Q167 962 305 962ZM845 1182Q869 1156 869 1130Q869 1102 848 1084T791 1065Q761 1065 740 1081T700 1120L620 1210L541 1120Q521 1095 501 1080T450 1065Q415 1065 394 1083T373 1131Q373 1158 396 1182L453 1241Q494 1287 530 1310T620 1334Q675 1334
711 1311T788 1241L845 1182Z" />
<glyph unicode="&#xfc;" d="M305 962Q442 962 442 803V429Q442 302 479 242T603 181Q662 181 706 210T775 291T800 403V803Q800 962 938 962Q1075 962 1075 803V141Q1075 -17 938 -17Q837 -17 811 74L809 121Q758 58 682 18T508 -22Q406 -22 329 17T210 147T167
388V803Q167 962 305 962ZM412 1084Q350 1084 307 1127T263 1233Q263 1298 306 1341T412 1385Q475 1385 518 1342T562 1233Q562 1171 519 1128T412 1084ZM828 1084Q766 1084 723 1127T679 1233Q679 1298 722 1341T828 1385Q891 1385 935 1342T979 1233Q979 1171
935 1128T828 1084Z" />
<glyph unicode="&#xfd;" d="M330 -476Q182 -476 182 -379Q182 -330 217 -306T330 -273Q384 -267 421 -234T487 -144T545 -8L549 4Q427 9 388 130L167 780Q157 811 157 840Q157 897 193 932T286 968Q357 968 389 932T442 824L623 261L804 823Q823 890 855 929T960
968Q1016 968 1049 934T1083 842Q1083 828 1081 813T1074 780L817 0Q779 -116 738 -205T642 -354T513 -445T330 -476ZM518 1082Q500 1082 484 1091T468 1125Q468 1153 497 1202L548 1275Q580 1331 611 1347T700 1363H729Q760 1363 777 1348T794 1309Q794 1276 755
1242L643 1136Q607 1104 576 1093T518 1082Z" />
<glyph unicode="&#xfe;" d="M327 -501Q189 -501 189 -342V1365Q189 1524 327 1524Q393 1524 428 1483T464 1365V-342Q464 -419 429 -460T327 -501ZM731 973Q845 973 941 918T1095 752T1154 478Q1154 315 1096 204T941 36T731 -21Q627 -21 549 26T427 159T383 357Q383
371 394 391T424 411Q434 411 448 400T464 362Q469 313 496 273T567 208T659 184Q718 184 767 218T845 318T875 478Q875 574 846 638T767 735T659 768Q610 768 567 742T497 674T465 582Q463 557 451 548T424 538Q406 538 395 553T383 583Q383 701 425 788T546 924T731
973Z" />
<glyph unicode="&#xff;" d="M330 -476Q182 -476 182 -379Q182 -330 217 -306T330 -273Q384 -267 421 -234T487 -144T545 -8L549 4Q427 9 388 130L167 780Q157 811 157 840Q157 897 193 932T286 968Q357 968 389 932T442 824L623 261L804 823Q823 890 855 929T960
968Q1016 968 1049 934T1083 842Q1083 828 1081 813T1074 780L817 0Q779 -116 738 -205T642 -354T513 -445T330 -476ZM424 1084Q362 1084 319 1127T275 1233Q275 1298 318 1341T424 1385Q487 1385 530 1342T574 1233Q574 1171 531 1128T424 1084ZM840 1084Q778
1084 735 1127T691 1233Q691 1298 734 1341T840 1385Q903 1385 947 1342T991 1233Q991 1171 947 1128T840 1084Z" />
<glyph unicode="&#x2013;" d="M186 579Q186 683 345 683H779Q938 683 938 579Q938 475 779 475H345Q186 475 186 579Z" />
<glyph unicode="&#x2014;" d="M36 579Q36 683 195 683H944Q1103 683 1103 579Q1103 475 944 475H195Q36 475 36 579Z" />
<glyph unicode="&#x2018;" d="M627 771Q545 771 485 824T425 984Q425 1036 441 1101T497 1239T610 1384Q646 1419 673 1432T720 1445Q740 1445 753 1434T767 1398Q767 1378 756 1358T708 1308Q632 1244 606 1160Q611 1161 616 1161T627 1162Q711 1162 767 1107T823
967Q823 886 767 829T627 771Z" />
<glyph unicode="&#x2019;" d="M583 1424Q664 1424 724 1371T784 1211Q784 1159 769 1094T713 956T599 810Q564 775 536 762T489 749Q470 749 456 760T442 796Q442 816 453 836T501 886Q577 951 604 1035Q598 1034 593 1033T583 1032Q499 1032 443 1088T386 1227Q386
1309 442 1366T583 1424Z" />
<glyph unicode="&#x201a;" d="M495 383Q552 383 601 359T680 285T710 156Q710 103 694 31T636 -122T513 -281Q476 -319 446 -333T396 -348Q374 -348 360 -335T345 -296Q345 -275 356 -254T405 -203Q444 -171 476 -129T522 -30Q516 -31 510 -31T495 -32Q406 -32
346 27T286 175Q286 232 314 279T389 355T495 383Z" />
<glyph unicode="&#x201c;" d="M412 766Q330 766 270 819T210 979Q210 1032 226 1097T282 1234T395 1379Q431 1415 458 1427T505 1440Q525 1440 538 1429T552 1393Q552 1373 541 1354T493 1304Q417 1239 391 1155Q396 1156 401 1156T412 1157Q496 1157 552 1102T608
962Q608 881 552 824T412 766ZM905 766Q823 766 763 819T703 979Q703 1032 719 1097T775 1234T888 1379Q924 1415 951 1427T998 1440Q1018 1440 1031 1429T1045 1393Q1045 1373 1034 1354T986 1304Q910 1239 884 1155Q889 1156 894 1156T905 1157Q989 1157 1045
1102T1101 962Q1101 881 1045 824T905 766Z" />
<glyph unicode="&#x201d;" d="M286 1428Q367 1428 427 1375T487 1215Q487 1163 472 1098T416 960T302 814Q267 779 239 766T192 753Q173 753 159 764T145 800Q145 820 156 840T204 890Q280 955 307 1039Q301 1038 296 1037T286 1036Q202 1036 146 1092T89 1231Q89
1313 145 1370T286 1428ZM791 1428Q872 1428 932 1375T992 1215Q992 1163 977 1098T921 960T807 814Q772 779 744 766T697 753Q678 753 664 764T650 800Q650 820 661 840T709 890Q785 955 812 1039Q806 1038 801 1037T791 1036Q707 1036 651 1092T594 1231Q594
1313 650 1370T791 1428Z" />
<glyph unicode="&#x201e;" d="M357 383Q414 383 463 359T542 285T572 156Q572 103 556 31T498 -122T375 -281Q338 -319 308 -333T258 -348Q236 -348 222 -335T207 -296Q207 -275 218 -254T267 -203Q306 -171 338 -129T384 -30Q378 -31 372 -31T357 -32Q268 -32
208 27T148 175Q148 232 176 279T251 355T357 383ZM887 383Q944 383 993 359T1072 285T1102 156Q1102 103 1086 31T1028 -122T905 -281Q868 -319 838 -333T788 -348Q766 -348 752 -335T737 -296Q737 -275 748 -254T797 -203Q836 -171 868 -129T914 -30Q908 -31
902 -31T887 -32Q798 -32 738 27T678 175Q678 232 706 279T781 355T887 383Z" />
<glyph unicode="&#x2022;" d="M564 365Q488 365 426 401T327 500T290 638Q290 716 326 778T425 876T564 913Q640 913 702 877T800 778T837 638Q837 562 801 500T702 402T564 365Z" />
<glyph unicode="&#x2039;" d="M722 141Q670 141 588 215L413 387Q351 442 331 479T311 559Q311 605 341 649T414 732L588 903Q670 977 722 977Q747 977 763 961T779 922Q779 895 755 862T691 789L374 475V648L691 329Q731 290 755 257T779 196Q779 172 762 157T722 141Z" />
<glyph unicode="&#x203a;" d="M468 141Q445 141 428 156T411 196Q411 223 435 256T499 329L816 648V475L499 789Q459 828 435 861T411 922Q411 944 427 960T468 977Q494 977 528 958T601 903L776 732Q819 694 849 650T879 559Q879 517 859 479T777 387L601 215Q562
180 528 161T468 141Z" />
</font>
</defs>
</svg>
